<?xml version="1.0" encoding="utf-8"?>
<svg viewBox="128.92499999999995 228.5 859.5000000000001 571.25" overflow="visible" width="859.5000000000001px" height="571.25px" xmlns="http://www.w3.org/2000/svg">
  <defs>
    <polygon id="mastersceneshome-office-path-1" points="0.605524272 126.577031 176.367413 126.577031 176.367413 0.366893082 0.605524272 0.366893082"/>
  </defs>
  <g id="Master/Scenes/Home Office" stroke="none" stroke-width="1" fill="none" fill-rule="evenodd">
    <g id="Floor/Carpet" transform="translate(304.721600, 664.398000) scale(1 1)">
      <g id="Floor/Carpet/Pink" stroke="none" stroke-width="1" fill="none" fill-rule="evenodd">
        <g id="Simple-Carpet" transform="translate(41.000000, 32.000000)">
          <path d="M450.8618,46.9304 C450.8618,72.5734 350.0448,93.3614 225.6808,93.3614 C101.3178,93.3614 0.5008,72.5734 0.5008,46.9304 C0.5008,21.2864 101.3178,0.4994 225.6808,0.4994 C350.0448,0.4994 450.8618,21.2864 450.8618,46.9304" id="Carpet" fill="#E68371"/>
          <path d="M27.204,55.534 C27.48,55.534 27.704,55.31 27.704,55.034 C27.704,54.017 28.708,53.213 29.77,53.61 C30.001,53.694 30.257,53.604 30.38,53.392 C30.658,52.91 31.151,52.622 31.697,52.622 C32.387,52.622 32.992,53.092 33.168,53.764 C33.214,53.94 33.351,54.077 33.527,54.122 C33.701,54.168 33.889,54.113 34.014,53.982 C34.306,53.676 34.697,53.507 35.116,53.507 C35.958,53.507 36.644,54.192 36.644,55.034 C36.644,55.31 36.868,55.534 37.144,55.534 C37.42,55.534 37.644,55.31 37.644,55.034 C37.644,53.64 36.51,52.507 35.116,52.507 C34.665,52.507 34.234,52.624 33.854,52.845 C33.406,52.1 32.595,51.622 31.697,51.622 C30.936,51.622 30.217,51.974 29.741,52.561 C28.168,52.228 26.704,53.471 26.704,55.034 C26.704,55.31 26.928,55.534 27.204,55.534 M370.476,81.984 C330.035,88.998 278.613,92.861 225.681,92.861 C101.792,92.861 1,72.257 1,46.93 C1,46.654 0.777,46.43 0.5,46.43 C0.224,46.43 0,46.654 0,46.93 C0,59.596 23.565,71.429 66.353,80.252 C108.917,89.028 165.5,93.861 225.681,93.861 C278.668,93.861 330.151,89.993 370.647,82.969 C370.919,82.922 371.101,82.663 371.054,82.391 C371.007,82.118 370.748,81.928 370.476,81.984 M84.281,48.887 C84.557,48.887 84.781,48.663 84.781,48.387 C84.781,47.368 85.792,46.565 86.846,46.962 C87.074,47.049 87.334,46.957 87.457,46.745 C87.735,46.263 88.227,45.974 88.774,45.974 C89.464,45.974 90.069,46.444 90.245,47.116 C90.291,47.291 90.428,47.428 90.603,47.473 C90.78,47.517 90.965,47.465 91.09,47.335 C91.383,47.027 91.775,46.858 92.193,46.858 C93.035,46.858 93.721,47.544 93.721,48.387 C93.721,48.663 93.944,48.887 94.221,48.887 C94.497,48.887 94.721,48.663 94.721,48.387 C94.721,46.992 93.587,45.858 92.193,45.858 C91.742,45.858 91.311,45.975 90.932,46.197 C90.483,45.453 89.672,44.974 88.774,44.974 C88.013,44.974 87.294,45.326 86.819,45.914 C85.248,45.571 83.781,46.822 83.781,48.387 C83.781,48.663 84.004,48.887 84.281,48.887 M374.247,70.53 C373.797,70.53 373.366,70.647 372.986,70.869 C372.538,70.125 371.727,69.645 370.829,69.645 C370.068,69.645 369.35,69.998 368.873,70.586 C367.301,70.244 365.835,71.494 365.835,73.058 C365.835,73.335 366.059,73.558 366.335,73.558 C366.612,73.558 366.835,73.335 366.835,73.058 C366.835,72.04 367.846,71.236 368.901,71.634 C369.127,71.721 369.389,71.63 369.512,71.417 C369.79,70.933 370.282,70.645 370.829,70.645 C371.518,70.645 372.123,71.115 372.299,71.788 C372.346,71.963 372.482,72.099 372.658,72.145 C372.834,72.191 373.019,72.137 373.145,72.007 C373.438,71.699 373.829,71.53 374.247,71.53 C375.09,71.53 375.775,72.216 375.775,73.058 C375.775,73.335 375.999,73.558 376.275,73.558 C376.552,73.558 376.775,73.335 376.775,73.058 C376.775,71.664 375.641,70.53 374.247,70.53 M381.316,49.296 C380.866,49.296 380.434,49.413 380.055,49.634 C379.607,48.889 378.796,48.411 377.898,48.411 C377.137,48.411 376.418,48.763 375.942,49.35 C374.366,49.02 372.905,50.262 372.905,51.823 C372.905,52.099 373.128,52.323 373.405,52.323 C373.681,52.323 373.905,52.099 373.905,51.823 C373.905,50.806 374.908,50 375.971,50.399 C376.2,50.485 376.458,50.393 376.58,50.181 C376.859,49.699 377.351,49.411 377.898,49.411 C378.587,49.411 379.192,49.881 379.369,50.554 C379.415,50.729 379.552,50.866 379.728,50.911 C379.903,50.957 380.09,50.902 380.215,50.771 C380.507,50.465 380.898,50.296 381.316,50.296 C382.159,50.296 382.845,50.981 382.845,51.823 C382.845,52.099 383.068,52.323 383.345,52.323 C383.621,52.323 383.845,52.099 383.845,51.823 C383.845,50.43 382.71,49.296 381.316,49.296 M322.598,41.208 C322.874,41.208 323.098,40.984 323.098,40.708 C323.098,39.691 324.101,38.886 325.164,39.284 C325.394,39.368 325.651,39.277 325.774,39.066 C326.052,38.584 326.545,38.296 327.091,38.296 C327.781,38.296 328.386,38.765 328.562,39.438 C328.608,39.614 328.746,39.751 328.921,39.796 C329.096,39.842 329.283,39.787 329.408,39.656 C329.7,39.349 330.091,39.18 330.51,39.18 C331.352,39.18 332.038,39.866 332.038,40.708 C332.038,40.984 332.262,41.208 332.538,41.208 C332.814,41.208 333.038,40.984 333.038,40.708 C333.038,39.314 331.904,38.18 330.51,38.18 C330.059,38.18 329.628,38.298 329.248,38.518 C328.8,37.774 327.989,37.296 327.091,37.296 C326.33,37.296 325.611,37.648 325.135,38.235 C323.559,37.903 322.099,39.145 322.098,40.708 C322.098,40.984 322.322,41.208 322.598,41.208 M261.808,79.283 C262.084,79.283 262.308,79.059 262.308,78.783 C262.308,77.766 263.312,76.961 264.374,77.359 C264.603,77.443 264.861,77.353 264.983,77.141 C265.262,76.659 265.754,76.371 266.301,76.371 C266.99,76.371 267.595,76.841 267.772,77.513 C267.818,77.687 267.955,77.824 268.13,77.87 C268.306,77.915 268.492,77.862 268.617,77.731 C268.91,77.425 269.301,77.256 269.719,77.256 C270.562,77.256 271.247,77.941 271.247,78.783 C271.247,79.059 271.471,79.283 271.747,79.283 C272.024,79.283 272.247,79.059 272.247,78.783 C272.247,77.389 271.113,76.256 269.719,76.256 C269.268,76.256 268.837,76.373 268.458,76.594 C268.01,75.849 267.199,75.371 266.301,75.371 C265.54,75.371 264.821,75.723 264.345,76.31 C262.77,75.98 261.308,77.221 261.308,78.783 C261.308,79.059 261.531,79.283 261.808,79.283 M149.03,69.412 C148.582,68.668 147.771,68.189 146.873,68.189 C146.112,68.189 145.393,68.542 144.917,69.129 C143.341,68.798 141.88,70.039 141.88,71.601 C141.88,71.878 142.103,72.101 142.38,72.101 C142.656,72.101 142.88,71.878 142.88,71.601 C142.879,70.585 143.883,69.779 144.946,70.178 C145.176,70.262 145.433,70.171 145.556,69.96 C145.834,69.477 146.327,69.189 146.873,69.189 C147.562,69.189 148.167,69.659 148.344,70.332 C148.39,70.508 148.527,70.644 148.703,70.689 C148.878,70.735 149.065,70.68 149.19,70.55 C149.482,70.243 149.873,70.074 150.291,70.074 C151.134,70.074 151.82,70.76 151.82,71.601 C151.82,71.878 152.043,72.101 152.32,72.101 C152.596,72.101 152.82,71.878 152.82,71.601 C152.82,70.208 151.685,69.074 150.291,69.074 C149.841,69.074 149.41,69.191 149.03,69.412 M130.1,5.378 C130.116,5.378 130.132,5.377 130.149,5.376 C160.142,2.471 192.284,1 225.681,1 C225.957,1 226.181,0.776 226.181,0.5 C226.181,0.223 225.957,-1.13686838e-13 225.681,-1.13686838e-13 C192.252,-1.13686838e-13 160.078,1.473 130.052,4.38 C129.777,4.407 129.576,4.651 129.603,4.926 C129.628,5.184 129.846,5.378 130.1,5.378 M239.764,16.89 C240.04,16.89 240.264,16.667 240.264,16.39 C240.264,15.374 241.268,14.569 242.331,14.967 C242.561,15.051 242.818,14.961 242.94,14.749 C243.218,14.266 243.711,13.978 244.257,13.978 C244.947,13.978 245.552,14.448 245.728,15.12 C245.774,15.295 245.911,15.431 246.087,15.477 C246.262,15.521 246.448,15.469 246.574,15.339 C246.866,15.032 247.258,14.863 247.676,14.863 C248.518,14.863 249.204,15.549 249.204,16.39 C249.204,16.667 249.428,16.89 249.704,16.89 C249.98,16.89 250.204,16.667 250.204,16.39 C250.204,14.997 249.07,13.863 247.676,13.863 C247.225,13.863 246.794,13.98 246.415,14.201 C245.967,13.457 245.156,12.978 244.257,12.978 C243.496,12.978 242.777,13.331 242.301,13.918 C240.73,13.587 239.264,14.828 239.264,16.39 C239.264,16.667 239.488,16.89 239.764,16.89" id="Fill-15" fill="#000"/>
        </g>
      </g>
    </g>
    <g id="Desk" transform="translate(436.000000, 478.770000)">
      <polygon fill="#83BB9E" points="268.0898 54.7969 1.3518 54.7969 1.3518 121.4819 84.7078 121.4819 84.7078 73.6429 268.0898 73.6429"/>
      <path d="M268.0898,54.2969 C267.8138,54.2969 267.5898,54.5209 267.5898,54.7969 L267.5898,73.3839 L1.8518,73.3839 L1.8518,54.7969 C1.8518,54.5209 1.6288,54.2969 1.3518,54.2969 C1.0758,54.2969 0.8518,54.5209 0.8518,54.7969 L0.8518,243.0109 C0.8518,243.2869 1.0758,243.5109 1.3518,243.5109 C1.6288,243.5109 1.8518,243.2869 1.8518,243.0109 L1.8518,74.3839 L267.5898,74.3839 L267.5898,243.0109 C267.5898,243.2869 267.8138,243.5109 268.0898,243.5109 C268.3658,243.5109 268.5898,243.2869 268.5898,243.0109 L268.5898,54.7969 C268.5898,54.5209 268.3658,54.2969 268.0898,54.2969 L268.0898,54.2969 Z M26.2548,84.7389 L60.2878,84.7389 L60.2878,83.0819 L26.2548,83.0819 L26.2548,84.7389 Z M60.7878,82.0819 L25.7548,82.0819 C25.4788,82.0819 25.2548,82.3059 25.2548,82.5819 L25.2548,85.2389 C25.2548,85.5159 25.4788,85.7389 25.7548,85.7389 L60.7878,85.7389 C61.0648,85.7389 61.2878,85.5159 61.2878,85.2389 L61.2878,82.5819 C61.2878,82.3059 61.0648,82.0819 60.7878,82.0819 L60.7878,82.0819 Z" id="Fill-44" fill="#000"/>
      <polygon id="Fill-45" fill="#E2A2B5" points="6.4996 54.839 19.9046 54.839 19.9046 0.23 6.4996 0.23"/>
      <polygon id="Fill-46" fill="#94B1EB" points="19.9046 54.839 33.3096 54.839 33.3096 12.338 19.9046 12.338"/>
      <path d="M33.31,11.8377 C33.033,11.8377 32.81,12.0617 32.81,12.3377 L32.81,54.3387 L20.405,54.3387 L20.405,20.7897 C20.405,20.5137 20.181,20.2897 19.905,20.2897 C19.628,20.2897 19.405,20.5137 19.405,20.7897 L19.405,54.3387 L6.5,54.3387 C6.224,54.3387 6,54.5627 6,54.8387 C6,55.1157 6.224,55.3387 6.5,55.3387 L33.31,55.3387 C33.586,55.3387 33.81,55.1157 33.81,54.8387 L33.81,12.3377 C33.81,12.0617 33.586,11.8377 33.31,11.8377" id="Path" fill="#000"/>
    </g>
    <g id="Chair" transform="translate(712.000000, 465.000000)">
      <polygon fill="#94B1EB" points="0.4991 151.593 108.5821 151.593 108.5821 136.593 0.4991 136.593"/>
      <path d="M131.249,71.057 C129.285,74.494 126.985,76.475 124.529,76.475 C117.344,76.475 111.499,59.546 111.499,38.737 C111.499,17.929 117.344,1 124.529,1 C131.713,1 137.559,17.929 137.559,38.737 C137.559,52.194 135.113,64.02 131.442,70.703 C131.331,70.788 131.259,70.913 131.249,71.057 Z M124.529,0 C116.662,0 110.499,17.015 110.499,38.737 C110.499,60.46 116.662,77.475 124.529,77.475 C127.021,77.475 129.341,75.764 131.349,72.739 C132.51,91.369 129.258,117.324 108.229,138.353 C108.034,138.549 108.034,138.865 108.229,139.06 C108.327,139.158 108.455,139.207 108.583,139.207 C108.711,139.207 108.838,139.158 108.936,139.06 C130.769,117.227 133.677,90.177 132.249,71.257 C136.075,64.408 138.559,52.524 138.559,38.737 C138.559,17.015 132.396,0 124.529,0 Z M109.083,136.821 C109.083,136.545 108.859,136.321 108.583,136.321 L0.5,136.321 C0.223,136.321 -1.27897692e-12,136.545 -1.27897692e-12,136.821 L-1.27897692e-12,150.593 C-1.27897692e-12,150.869 0.223,151.093 0.5,151.093 C0.776,151.093 1,150.869 1,150.593 L1,137.321 L108.583,137.321 C108.859,137.321 109.083,137.098 109.083,136.821 M86.426,241.555184 L57.378,222.819344 L57.378,140.49861 C57.378,140.232684 57.154,140.018598 56.878,140.018598 C56.601,140.018598 56.378,140.232684 56.378,140.49861 L56.378,222.819344 L27.159,241.664626 C26.239,241.304617 25.235,241.103012 24.18,241.103012 C19.821,241.103012 16.288,244.495739 16.288,248.679526 C16.288,252.865233 19.821,256.257 24.18,256.257 C28.539,256.257 32.073,252.865233 32.073,248.679526 C32.073,245.901215 30.509,243.478113 28.186,242.159999 L56.378,223.976174 L56.378,241.127013 C52.253,241.376619 48.985,244.657983 48.985,248.679526 C48.985,252.865233 52.519,256.257 56.878,256.257 C61.237,256.257 64.77,252.865233 64.77,248.679526 C64.77,244.657023 61.503,241.375659 57.378,241.127013 L57.378,223.976174 L85.341,242.012155 C82.876,243.294748 81.2,245.798492 81.2,248.679526 C81.2,252.865233 84.734,256.257 89.092,256.257 C93.452,256.257 96.985,252.865233 96.985,248.679526 C96.985,244.495739 93.452,241.103012 89.092,241.103012 C88.156,241.103012 87.26,241.267176 86.426,241.555184 Z" id="Fill-161" fill="#000"/>
    </g>
    <g id="Chair" transform="translate(354.500000, 595.500000) scale(-1, 1) translate(-354.500000, -595.500000) translate(285.000000, 467.000000)">
      <path d="M131.249,71.057 C129.285,74.494 126.985,76.475 124.529,76.475 C117.344,76.475 111.499,59.546 111.499,38.737 C111.499,17.929 117.344,1 124.529,1 C131.713,1 137.559,17.929 137.559,38.737 C137.559,52.194 135.113,64.02 131.442,70.703 C131.331,70.788 131.259,70.913 131.249,71.057 Z M124.529,0 C116.662,0 110.499,17.015 110.499,38.737 C110.499,60.46 116.662,77.475 124.529,77.475 C127.021,77.475 129.341,75.764 131.349,72.739 C132.51,91.369 129.258,117.324 108.229,138.353 C108.034,138.549 108.034,138.865 108.229,139.06 C108.327,139.158 108.455,139.207 108.583,139.207 C108.711,139.207 108.838,139.158 108.936,139.06 C130.769,117.227 133.677,90.177 132.249,71.257 C136.075,64.408 138.559,52.524 138.559,38.737 C138.559,17.015 132.396,0 124.529,0 Z M109.083,136.821 C109.083,136.545 108.859,136.321 108.583,136.321 L0.5,136.321 C0.223,136.321 -1.27897692e-12,136.545 -1.27897692e-12,136.821 L-1.27897692e-12,150.593 C-1.27897692e-12,150.869 0.223,151.093 0.5,151.093 C0.776,151.093 1,150.869 1,150.593 L1,137.321 L108.583,137.321 C108.859,137.321 109.083,137.098 109.083,136.821 M86.426,241.555184 L57.378,222.819344 L57.378,140.49861 C57.378,140.232684 57.154,140.018598 56.878,140.018598 C56.601,140.018598 56.378,140.232684 56.378,140.49861 L56.378,222.819344 L27.159,241.664626 C26.239,241.304617 25.235,241.103012 24.18,241.103012 C19.821,241.103012 16.288,244.495739 16.288,248.679526 C16.288,252.865233 19.821,256.257 24.18,256.257 C28.539,256.257 32.073,252.865233 32.073,248.679526 C32.073,245.901215 30.509,243.478113 28.186,242.159999 L56.378,223.976174 L56.378,241.127013 C52.253,241.376619 48.985,244.657983 48.985,248.679526 C48.985,252.865233 52.519,256.257 56.878,256.257 C61.237,256.257 64.77,252.865233 64.77,248.679526 C64.77,244.657023 61.503,241.375659 57.378,241.127013 L57.378,223.976174 L85.341,242.012155 C82.876,243.294748 81.2,245.798492 81.2,248.679526 C81.2,252.865233 84.734,256.257 89.092,256.257 C93.452,256.257 96.985,252.865233 96.985,248.679526 C96.985,244.495739 93.452,241.103012 89.092,241.103012 C88.156,241.103012 87.26,241.267176 86.426,241.555184 Z" id="Fill-161" fill="#000"/>
      <polygon fill="#EC7068" points="0.4991 151.593 108.5821 151.593 108.5821 137.822 0.4991 137.822"/>
    </g>
    <g id="Table top" transform="translate(421.000000, 378.000000) scale(1 1)">
      <g id="Table top/Lamp" stroke="none" stroke-width="1" fill="none" fill-rule="evenodd">
        <g id="Desktop-Lamp" transform="translate(51.000000, 47.000000)">
          <g id="Desk-Top">
            <path d="M89.0718,59.174 C89.0718,62.675 86.2338,65.513 82.7328,65.513 C79.2318,65.513 76.3938,62.675 76.3938,59.174 C76.3938,55.673 79.2318,52.835 82.7328,52.835 C86.2338,52.835 89.0718,55.673 89.0718,59.174" id="Fill-154" fill="#F9E272"/>
            <path d="M55.8238,59.174 L106.7708,59.174 C106.7708,46.217 96.8208,35.59 84.1448,34.502 C84.1808,34.278 84.2138,34.053 84.2138,33.819 C84.2138,31.442 82.2868,29.515 79.9098,29.515 C79.6308,29.515 79.3588,29.546 79.0948,29.597 L51.2398,8.475 C51.2888,8.129 51.3228,7.778 51.3228,7.419 C51.3228,3.321 48.0018,0 43.9048,0 C39.8078,0 36.4868,3.321 36.4868,7.419 C36.4868,10.078 37.8908,12.404 39.9938,13.714 L22.2258,103.729 L5.8148,103.729 C2.9148,103.729 0.5638,106.079 0.5638,108.98 L48.8558,108.98 C48.8558,106.079 46.5048,103.729 43.6048,103.729 L26.9998,103.729 L44.5538,14.804 C46.2838,14.653 47.8408,13.91 49.0258,12.778 L75.6888,32.996 C75.6368,33.263 75.6058,33.537 75.6058,33.819 C75.6058,34.193 75.6678,34.548 75.7578,34.893 C64.3948,37.144 55.8238,47.151 55.8238,59.174" id="Lamp" fill="#EC7068"/>
            <path d="M36.147,103.1105 L5.815,103.1105 C5.474,103.1105 5.197,103.3865 5.197,103.7285 C5.197,104.0705 5.474,104.3465 5.815,104.3465 L36.147,104.3465 C36.488,104.3465 36.765,104.0705 36.765,103.7285 C36.765,103.3865 36.488,103.1105 36.147,103.1105 M106.771,58.6285 L56.376,58.6285 C56.626,47.4965 64.52,37.9155 75.388,35.5325 C76.083,37.3605 77.84,38.6695 79.91,38.6695 C80.211,38.6695 80.456,38.4245 80.456,38.1235 C80.456,37.8215 80.211,37.5775 79.91,37.5775 C77.837,37.5775 76.151,35.8905 76.151,33.8185 C76.151,31.7465 77.837,30.0605 79.91,30.0605 C80.211,30.0605 80.456,29.8165 80.456,29.5145 C80.456,29.2135 80.211,28.9685 79.91,28.9685 C77.235,28.9685 75.06,31.1445 75.06,33.8185 C75.06,34.0435 75.096,34.2575 75.126,34.4745 C63.598,37.0145 55.278,47.3085 55.278,59.1735 C55.278,59.4755 55.522,59.7195 55.824,59.7195 L106.771,59.7195 C107.073,59.7195 107.317,59.4755 107.317,59.1735 C107.317,58.8725 107.073,58.6285 106.771,58.6285 M51.323,6.8735 C51.021,6.8735 50.777,7.1175 50.777,7.4195 C50.777,11.2085 47.694,14.2915 43.905,14.2915 C40.115,14.2915 37.032,11.2085 37.032,7.4195 C37.032,7.1175 36.788,6.8735 36.486,6.8735 C36.185,6.8735 35.94,7.1175 35.94,7.4195 C35.94,11.8105 39.513,15.3825 43.905,15.3825 C48.296,15.3825 51.869,11.8105 51.869,7.4195 C51.869,7.1175 51.625,6.8735 51.323,6.8735" id="Fill-156" fill="#000"/>
          </g>
        </g>
      </g>
    </g>
    <g id="Wall Decor" transform="translate(781.968000, 206.018000) scale(1 1)">
      <g id="Wall Decor/Post its" stroke="none" stroke-width="1" fill="none" fill-rule="evenodd">
        <path d="M64.2682,171.502 L64.2682,194.113 C64.2682,199.392 65.2872,204.622 67.2682,209.516 L26.9992,209.516 C25.0182,204.622 23.9992,199.392 23.9992,194.113 L23.9992,171.502 L64.2682,171.502 Z M202.4693,171.502 L202.4693,194.113 C202.4693,199.392 203.4883,204.622 205.4693,209.516 L165.2003,209.516 C163.2193,204.622 162.2003,199.392 162.2003,194.113 L162.2003,171.502 L202.4693,171.502 Z M64.2682,41.9991 L64.2682,64.6101 C64.2682,69.8891 65.2872,75.1191 67.2682,80.0131 L26.9992,80.0131 C25.0182,75.1191 23.9992,69.8891 23.9992,64.6101 L23.9992,41.9991 L64.2682,41.9991 Z M202.4693,41.9991 L202.4693,64.6101 C202.4693,69.8891 203.4883,75.1191 205.4693,80.0131 L165.2003,80.0131 C163.2193,75.1191 162.2003,69.8891 162.2003,64.6101 L162.2003,41.9991 L202.4693,41.9991 Z" id="Post-its-1" fill="#94B1EB"/>
        <path d="M64.2682,106.7506 L64.2682,129.3616 C64.2682,134.6406 65.2872,139.8706 67.2682,144.7646 L26.9992,144.7646 C25.0182,139.8706 23.9992,134.6406 23.9992,129.3616 L23.9992,106.7506 L64.2682,106.7506 Z M133.3688,41.9991 L133.3688,64.6101 C133.3688,69.8891 134.3878,75.1191 136.3688,80.0131 L96.0998,80.0131 C94.1188,75.1191 93.0998,69.8891 93.0998,64.6101 L93.0998,41.9991 L133.3688,41.9991 Z" id="Post-its-2" fill="#83BB9E"/>
        <path d="M133.3688,171.502 L133.3688,194.113 C133.3688,199.392 134.3878,204.622 136.3688,209.516 L96.0998,209.516 C94.1188,204.622 93.0998,199.392 93.0998,194.113 L93.0998,171.502 L133.3688,171.502 Z M133.3688,106.7506 L133.3688,129.3616 C133.3688,134.6406 134.3878,139.8706 136.3688,144.7646 L96.0998,144.7646 C94.1188,139.8706 93.0998,134.6406 93.0998,129.3616 L93.0998,106.7506 L133.3688,106.7506 Z M202.4693,106.7506 L202.4693,129.3616 C202.4693,134.6406 203.4883,139.8706 205.4693,144.7646 L165.2003,144.7646 C163.2193,139.8706 162.2003,134.6406 162.2003,129.3616 L162.2003,106.7506 L202.4693,106.7506 Z" id="Post-its-3" fill="#EC7068"/>
      </g>
    </g>
    <g id="Object" transform="translate(91.106000, 283.345000) scale(1 1)">
      <g id="Object/Wavy Plant" stroke="none" stroke-width="1" fill="none" fill-rule="evenodd">
        <g id="Wavy-Plant" transform="translate(45.000000, 190.000000)">
          <path d="M78.2952755,248.359229 L32.6422755,248.359229 C23.8992755,248.359229 16.8112755,241.271229 16.8112755,232.528229 L16.8112755,165.246229 L94.1262755,165.246229 L94.1262755,232.528229 C94.1262755,241.271229 87.0382755,248.359229 78.2952755,248.359229" id="Pot" fill="#94B1EB"/>
          <path d="M159.842675,7.43402872 C139.090675,-12.8459713 112.830675,17.8100287 112.830675,17.8100287 C112.830675,17.8100287 89.7736755,-10.3579713 79.2946755,42.1650287 C79.2946755,42.1650287 52.5516755,23.5320287 61.1246755,66.3890287 C61.1246755,66.3890287 46.1976755,64.1450287 49.5816755,90.9210287 C47.2326755,91.3470287 45.5886755,91.8920287 45.5886755,91.8920287 C42.8736755,76.9220287 35.7476755,53.2490287 13.6916755,65.8050287 C-8.36532451,78.3590287 24.5506755,96.3440287 22.4676755,98.7190287 C20.3846755,101.095029 8.26267549,91.8920287 0.797675487,101.434029 C-6.66832451,110.976029 41.1766755,125.865029 23.8716755,125.186029 C6.56567549,124.508029 -0.560324513,137.742029 22.4676755,147.243029 C45.4946755,156.744029 47.8996755,165.791029 48.3026755,165.246029 C50.6566755,162.061029 52.7596755,159.109029 54.6456755,156.360029 C55.1356755,157.074029 55.6326755,157.782029 56.1456755,158.479029 L61.1246755,165.246029 C61.1246755,165.246029 127.299675,135.748029 112.207675,127.716029 C97.1146755,119.684029 98.0576755,118.269029 113.150675,103.648029 C128.242675,89.0270287 121.168675,86.6690287 110.320675,81.9530287 C99.4726755,77.2360287 117.466675,68.2750287 125.412675,64.5020287 C133.359675,60.7290287 159.842675,52.2400287 142.391675,37.6190287 C124.941675,22.9980287 180.594675,27.7140287 159.842675,7.43402872" id="Fill-29" fill="#83BB9E"/>
          <path d="M17.3113755,232.528229 L17.3113755,165.246229 L16.3113755,165.246229 L16.3113755,232.528229 C16.3113755,241.533229 23.6373755,248.859229 32.6423755,248.859229 L32.6423755,247.859229 C24.1883755,247.859229 17.3113755,240.981229 17.3113755,232.528229 M108.150375,24.5042287 C108.204375,24.5222287 108.259375,24.5312287 108.313375,24.5312287 C108.520375,24.5312287 108.714375,24.4022287 108.786375,24.1952287 C110.019375,20.6332287 120.701375,11.0322287 120.809375,10.9362287 C121.015375,10.7512287 121.032375,10.4352287 120.848375,10.2302287 C120.663375,10.0242287 120.346375,10.0072287 120.142375,10.1912287 C119.693375,10.5922287 109.158375,20.0642287 107.841375,23.8672287 C107.750375,24.1282287 107.889375,24.4132287 108.150375,24.5042287 M36.7173755,153.900229 C32.7693755,151.396229 28.0393755,149.001229 22.6583755,146.781229 C12.7513755,142.693229 7.46037549,137.404229 8.50337549,132.631229 C9.46637549,128.225229 15.7713755,125.353229 23.8523755,125.686229 C24.1373755,125.699229 24.3603755,125.482229 24.3713755,125.206229 C24.3813755,124.930229 24.1663755,124.697229 23.8913755,124.686229 C15.1793755,124.345229 8.61237549,127.452229 7.52637549,132.417229 C6.37137549,137.703229 11.8853755,143.418229 22.2763755,147.705229 C27.6033755,149.903229 32.2823755,152.271229 36.1823755,154.744229 C36.2653755,154.797229 36.3573755,154.822229 36.4493755,154.822229 C36.6153755,154.822229 36.7773755,154.740229 36.8723755,154.590229 C37.0203755,154.356229 36.9513755,154.048229 36.7173755,153.900229 M125.198375,64.0502287 C117.105375,67.8932287 106.355375,73.5562287 106.435375,78.3602287 C106.462375,79.9972287 107.702375,81.3602287 110.121375,82.4122287 L111.155375,82.8592287 C116.471375,85.1592287 120.669375,86.9752287 121.235375,90.0762287 C121.769375,93.0002287 119.090375,97.1982287 112.803375,103.289229 C104.403375,111.425229 100.388375,115.495229 100.890375,119.049229 C101.309375,122.018229 104.647375,124.258229 111.972375,128.157229 C112.047375,128.197229 112.127375,128.215229 112.207375,128.215229 C112.385375,128.215229 112.559375,128.120229 112.648375,127.951229 C112.778375,127.707229 112.686375,127.404229 112.442375,127.274229 C105.570375,123.617229 102.236375,121.432229 101.880375,118.908229 C101.447375,115.838229 105.346375,111.905229 113.498375,104.007229 C120.137375,97.5762287 122.827375,93.2232287 122.219375,89.8962287 C121.557375,86.2692287 117.142375,84.3602287 111.552375,81.9422287 L110.519375,81.4942287 C108.493375,80.6132287 107.455375,79.5522287 107.435375,78.3432287 C107.383375,75.2152287 113.504375,70.7102287 125.627375,64.9542287 C125.876375,64.8352287 125.983375,64.5372287 125.864375,64.2882287 C125.746375,64.0382287 125.449375,63.9332287 125.198375,64.0502287 M60.6183755,163.714229 L56.5483755,158.183229 C56.1033755,157.578229 55.6773755,156.965229 55.2543755,156.353229 C57.7283755,152.736229 59.8893755,149.381229 61.7213755,146.301229 C60.7953755,154.759229 60.6353755,160.979229 60.6183755,163.714229 M129.527375,23.7482287 C129.371375,23.5222287 129.059375,23.4632287 128.832375,23.6182287 C92.2783755,48.6752287 75.6803755,85.8542287 68.1923755,112.632229 C67.3923755,115.496229 66.6853755,118.296229 66.0443755,121.033229 C63.8923755,120.251229 61.2833755,120.653229 59.8093755,121.000229 C61.5303755,118.127229 63.3533755,114.462229 64.2543755,110.651229 C64.2553755,110.646229 64.2533755,110.640229 64.2543755,110.635229 C66.4573755,104.206229 66.8743755,99.2112287 65.4723755,95.7302287 C64.4923755,93.2992287 62.6443755,91.6062287 59.9793755,90.6992287 C56.7563755,89.6032287 52.9423755,89.8482287 50.0243755,90.3322287 C48.6723755,78.9232287 50.7323755,73.0922287 53.2563755,70.1372287 C56.1473755,66.7522287 59.8173755,66.7832287 60.8033755,66.8572287 C61.5083755,70.5622287 62.3813755,74.2772287 63.3163755,76.2302287 C63.4023755,76.4102287 63.5813755,76.5142287 63.7683755,76.5142287 C63.8403755,76.5142287 63.9143755,76.4992287 63.9833755,76.4662287 C64.2323755,76.3462287 64.3373755,76.0482287 64.2183755,75.7992287 C62.0553755,71.2792287 60.1333755,56.2492287 60.1143755,56.0972287 C60.1133755,56.0892287 60.1073755,56.0832287 60.1063755,56.0742287 C59.3903755,47.4522287 60.7303755,41.9682287 64.1293755,39.7402287 C69.6293755,36.1342287 78.9153755,42.5102287 79.0093755,42.5752287 C79.2343755,42.7322287 79.5463755,42.6772287 79.7053755,42.4502287 C79.8623755,42.2242287 79.8073755,41.9122287 79.5803755,41.7552287 C79.1783755,41.4742287 69.6493755,34.9302287 63.5833755,38.9032287 C59.8713755,41.3352287 58.3843755,47.1392287 59.1243755,56.1962287 C59.1243755,56.2062287 59.1213755,56.2142287 59.1223755,56.2232287 C59.1243755,56.2472287 59.1313755,56.2972287 59.1393755,56.3592287 C59.3783755,59.2052287 59.8303755,62.3602287 60.5073755,65.8412287 C59.0143755,65.8022287 55.4033755,66.0972287 52.5113755,69.4702287 C48.6063755,74.0232287 48.0273755,81.8842287 49.0583755,90.5062287 C47.6113755,90.7872287 46.4703755,91.1012287 45.8773755,91.2782287 C45.7273755,90.1482287 45.5213755,88.9462287 45.2523755,87.6632287 C45.1953755,87.3922287 44.9283755,87.2162287 44.6603755,87.2762287 C44.3903755,87.3332287 44.2173755,87.5972287 44.2733755,87.8682287 C45.0453755,91.5482287 45.3203755,94.5732287 45.0903755,96.8632287 C45.0633755,97.1372287 45.2633755,97.3822287 45.5383755,97.4102287 C45.5553755,97.4122287 45.5723755,97.4132287 45.5883755,97.4132287 C45.8423755,97.4132287 46.0603755,97.2202287 46.0853755,96.9632287 C46.2193755,95.6312287 46.1863755,94.0622287 45.9983755,92.2892287 C47.3663755,91.8742287 54.4733755,89.8812287 59.6573755,91.6462287 C62.0343755,92.4552287 63.6783755,93.9552287 64.5443755,96.1032287 C66.5203755,101.008229 64.5963755,109.264229 58.8453755,120.635229 C56.9003755,123.858229 55.1163755,126.044229 55.0833755,126.084229 C54.9073755,126.297229 54.9373755,126.611229 55.1493755,126.788229 C55.2433755,126.864229 55.3563755,126.902229 55.4683755,126.902229 C55.6123755,126.902229 55.7553755,126.840229 55.8533755,126.720229 C55.9763755,126.573229 57.3793755,124.854229 59.0393755,122.250229 C59.5893755,122.075229 65.3483755,120.328229 67.5843755,123.319229 C69.8773755,126.387229 69.0843755,135.048229 52.2863755,158.880229 C52.1263755,159.105229 52.1813755,159.418229 52.4063755,159.576229 C52.4943755,159.638229 52.5943755,159.668229 52.6943755,159.668229 C52.8513755,159.668229 53.0063755,159.593229 53.1033755,159.456229 C53.6393755,158.695229 54.1383755,157.965229 54.6483755,157.227229 C55.0073755,157.745229 55.3663755,158.263229 55.7433755,158.775229 L60.1363755,164.746229 L48.8193755,164.746229 C50.9773755,116.888229 27.3543755,79.2732287 27.1143755,78.8972287 C26.9663755,78.6642287 26.6573755,78.5952287 26.4243755,78.7442287 C26.1913755,78.8932287 26.1233755,79.2022287 26.2713755,79.4342287 C26.5093755,79.8082287 49.9783755,117.194229 47.8193755,164.746229 L41.1813755,164.746229 L41.1813755,165.746229 L93.6263755,165.746229 L93.6263755,201.970229 L94.6263755,201.970229 L94.6263755,164.746229 L61.6183755,164.746229 C61.6023755,162.809229 61.6443755,155.144229 62.9733755,144.135229 C69.1103755,133.334229 70.9453755,126.143229 68.3843755,122.718229 C67.9843755,122.184229 67.5033755,121.773229 66.9733755,121.462229 C67.6243755,118.665229 68.3443755,115.801229 69.1643755,112.871229 C76.6083755,86.2632287 93.1023755,49.3232287 129.397375,24.4442287 C129.624375,24.2872287 129.683375,23.9762287 129.527375,23.7482287" id="Fill-30" fill="#000"/>
          <path d="M112.830975,18.3099287 L112.825975,18.3099287 C112.677975,18.3079287 112.537975,18.2409287 112.443975,18.1269287 C112.381975,18.0499287 106.093975,10.4939287 98.8059755,10.7749287 C95.0049755,10.9369287 91.5629755,13.2259287 88.5749755,17.5789287 C88.4199755,17.8059287 88.1089755,17.8649287 87.8799755,17.7069287 C87.6519755,17.5509287 87.5949755,17.2399287 87.7509755,17.0119287 C90.9269755,12.3849287 94.6329755,9.95092872 98.7669755,9.77592872 C105.587975,9.48692872 111.321975,15.3569287 112.836975,17.0529287 C115.234975,14.4189287 128.427975,0.658928718 142.792975,0.0219287178 C149.248975,-0.256071282 155.108975,2.10992872 160.191975,7.07692872 C160.389975,7.26892872 160.393975,7.58592872 160.199975,7.78392872 C160.007975,7.98092872 159.689975,7.98492872 159.492975,7.79092872 C154.616975,3.02592872 149.012975,0.742928718 142.839975,1.02092872 C127.466975,1.70092872 113.351975,17.9709287 113.210975,18.1349287 C113.115975,18.2459287 112.976975,18.3099287 112.830975,18.3099287" id="Fill-13" fill="#000"/>
        </g>
      </g>
    </g>
    <g transform="translate(753.500000, 347.500000) scale(-1, 1) translate(-753.500000, -347.500000) translate(488.000000, -28.000000) scale(1 1)" id="Master/Character/Sitting on Chair">
      <defs>
        <polygon id="mastercharactersitting-on-chair-path-1" points="0 0.0003 46.889 0.0003 46.889 52.9562 0 52.9562"/>
      </defs>
      <g id="Master/Character/Sitting on Chair" stroke="none" stroke-width="1" fill="none" fill-rule="evenodd">
        <g id="Lower Body/Sitting on Chair" transform="translate(71.000000, 393.000000) scale(1 1)">
          <g id="Lower Body/Sitting on Chair/Green Sandals" stroke="none" stroke-width="1" fill="none" fill-rule="evenodd">
            <g id="Group" transform="translate(135.999802, 170.499900)">
              <path d="M171.385998,181.0527 C165.388998,177.3777 137.739998,167.0987 137.110998,158.7277 C136.134998,145.7357 136.167998,124.9637 136.340998,110.0237 C128.285998,110.8727 119.012998,111.7577 109.150998,112.5217 L120.312998,158.9277 C120.852998,163.1147 121.579998,163.5157 117.027998,173.0137 C116.591998,173.9227 116.313998,174.7517 116.155998,175.5127 C106.130998,170.7557 93.6649979,164.3177 93.2459979,158.7277 C92.2699979,145.7357 92.3029979,124.9637 92.4759979,110.0237 C84.4209979,110.8727 75.1479979,111.7577 65.2849979,112.5217 L76.4479979,158.9277 C76.9879979,163.1147 77.7149979,163.5157 73.1629979,173.0137 C68.8489979,182.0107 79.4019979,183.4347 79.4019979,183.4347 L126.803998,183.553705 C126.993998,183.553705 127.173998,183.5147 127.337998,183.4457 L170.669998,183.553705 C171.416998,183.5557 172.023998,182.9497 172.023998,182.2027 C172.023998,181.7327 171.786998,181.2977 171.385998,181.0527" id="Skin" fill="#f4d4b8"/>
              <path d="M6.65009792,1 C6.65009792,1 -3.29290208,38.578 1.13709792,51.375 C5.12809792,62.902 13.5410979,70.907 51.7270979,67.749 C51.7270979,67.749 66.2290979,145.492 66.2290979,146.194 C66.2290979,146.795 89.9940979,144.317 96.8980979,143.585 C97.9310979,143.475 98.6860979,142.559 98.5970979,141.523 L91.3090979,65.524 L96.9250979,65.758 L110.912098,142.144 C111.074098,143.135 111.977098,143.831 112.977098,143.735 L142.096098,140.949 C143.132098,140.85 143.898098,139.938 143.817098,138.901 L135.797098,44.4 C134.863098,32.345 124.695098,23.108 112.607098,23.332 L96.2230979,23.635 L94.3510979,1 L6.65009792,1 Z" id="Pants" fill="#F0BE91"/>
              <path d="M171.778598,183.5029 L164.397598,183.5029 L164.397598,175.9029 C164.397598,175.3989 164.088598,174.9429 163.618598,174.7569 L157.300598,172.2499 C156.490598,171.9289 155.611598,172.5249 155.611598,173.3969 L155.611598,183.5029 L120.531598,183.5029 L120.531598,175.9029 C120.531598,175.3989 120.223598,174.9429 119.753598,174.7569 L113.435598,172.2499 C112.625598,171.9289 111.746598,172.5249 111.746598,173.3969 L111.746598,183.5029 L73.8685979,183.5029 C72.6285979,183.5029 71.6235979,184.5079 71.6235979,185.7469 L71.6235979,186.1389 C71.6235979,187.3779 72.6285979,188.3829 73.8685979,188.3829 L171.778598,188.3829 C173.018598,188.3829 174.023598,187.3779 174.023598,186.1389 L174.023598,185.7469 C174.023598,184.5079 173.018598,183.5029 171.778598,183.5029" id="Sandals" fill="#83BB9E"/>
              <path d="M155.612298,172.8965 C155.888298,172.8965 156.112298,173.1205 156.112298,173.3965 L156.112298,173.3965 L156.112298,184.0025 L130.015298,184.0025 C130.410298,184.4785 130.658298,185.0815 130.658298,185.7475 L130.658298,185.7475 L130.658298,186.1385 C130.658298,186.4155 130.435298,186.6385 130.158298,186.6385 C129.882298,186.6385 129.658298,186.4155 129.658298,186.1385 L129.658298,186.1385 L129.658298,185.7475 C129.658298,184.7855 128.875298,184.0025 127.914298,184.0025 L127.914298,184.0025 L120.532298,184.0025 C120.255298,184.0025 120.032298,183.7795 120.032298,183.5025 C120.032298,183.2265 120.255298,183.0025 120.532298,183.0025 L120.532298,183.0025 L127.914298,183.0025 C127.937298,183.0025 127.959298,183.0095 127.983298,183.0095 C127.985298,183.0075 127.988298,183.0045 127.991298,183.0025 L127.991298,183.0025 L155.112298,183.0025 L155.112298,173.3965 C155.112298,173.1205 155.335298,172.8965 155.612298,172.8965 Z M93.2082979,158.2285 C93.4832979,158.2085 93.7242979,158.4155 93.7442979,158.6905 C94.0832979,163.2045 103.290298,168.5905 111.953298,172.9115 C111.951298,172.9205 111.952298,172.9315 111.950298,172.9415 C112.124298,173.0195 112.247298,173.1925 112.247298,173.3965 L112.247298,173.3965 L112.247298,184.0025 L73.8692979,184.0025 C72.9072979,184.0025 72.1242979,184.7855 72.1242979,185.7475 C72.1242979,186.0235 71.9002979,186.2475 71.6242979,186.2475 C71.3482979,186.2475 71.1242979,186.0235 71.1242979,185.7475 C71.1242979,184.2345 72.3552979,183.0025 73.8692979,183.0025 L73.8692979,183.0025 L111.247298,183.0025 L111.247298,173.6785 C102.265298,169.1905 93.1212979,163.7445 92.7472979,158.7645 C92.7272979,158.4895 92.9332979,158.2505 93.2082979,158.2285 Z M120.679298,177.0845 C123.854298,178.5715 126.369298,179.7595 127.782298,180.6265 C128.331298,180.9615 128.658298,181.5505 128.658298,182.2035 C128.658298,182.4795 128.435298,182.7035 128.158298,182.7035 C127.882298,182.7035 127.658298,182.4795 127.658298,182.2035 C127.658298,181.9025 127.509298,181.6315 127.260298,181.4795 C125.924298,180.6615 123.399298,179.4635 120.440298,178.0795 C120.441298,178.0335 120.433298,177.9875 120.433298,177.9415 C120.442298,177.7265 120.442298,177.5115 120.428298,177.2975 C120.510298,177.2255 120.605298,177.1655 120.679298,177.0845 Z M83.5140688,161.60037 L83.6052979,161.6125 C83.8742979,161.6755 84.0402979,161.9445 83.9782979,162.2135 L83.9782979,162.2135 L83.5972979,163.8415 C83.2062979,165.5175 83.6982979,167.2445 84.9152979,168.4595 C85.1102979,168.6555 85.1102979,168.9715 84.9152979,169.1675 C84.8172979,169.2645 84.6892979,169.3135 84.5612979,169.3135 C84.4332979,169.3135 84.3052979,169.2645 84.2072979,169.1675 C82.7452979,167.7055 82.1532979,165.6295 82.6232979,163.6145 L82.6232979,163.6145 L83.0032979,161.9855 C83.0672979,161.7165 83.3292979,161.5515 83.6052979,161.6125 Z M127.378805,161.60037 L127.470298,161.6125 C127.738298,161.6755 127.905298,161.9445 127.843298,162.2135 L127.843298,162.2135 L127.462298,163.8415 C127.070298,165.5175 127.562298,167.2445 128.779298,168.4595 C128.975298,168.6555 128.975298,168.9715 128.779298,169.1675 C128.682298,169.2645 128.554298,169.3135 128.426298,169.3135 C128.298298,169.3135 128.170298,169.2645 128.072298,169.1675 C126.609298,167.7055 126.018298,165.6295 126.487298,163.6145 L126.487298,163.6145 L126.868298,161.9855 C126.932298,161.7165 127.193298,161.5515 127.470298,161.6125 Z M50.3822979,46.1545 L52.2212979,58.6755 C54.6427979,73.1583 66.7287979,145.4863 66.7287979,146.1943 C66.7287979,146.4703 66.5047979,146.6943 66.2287979,146.6943 C65.9527979,146.6943 65.7287979,146.4703 65.7287979,146.1943 C65.6257979,145.0633 56.2027979,88.5503 51.2337979,58.8313 L51.2322979,58.8215 L51.2322979,58.8215 L49.3932979,46.3005 C49.3532979,46.0265 49.5422979,45.7725 49.8152979,45.7325 C50.0942979,45.6895 50.3422979,45.8815 50.3822979,46.1545 Z M95.5455979,46.1403 L97.4175979,56.6713 C97.41805,56.6754093 97.4182255,56.676454 97.4183979,56.6775 L111.405398,142.0625 C111.450398,142.3345 111.265398,142.5925 110.993398,142.6365 C110.965398,142.6415 110.938398,142.6435 110.911398,142.6435 C110.670398,142.6435 110.458398,142.4695 110.418398,142.2245 L96.4313979,56.8395 L94.5605979,46.3153 C94.5125979,46.0433 94.6935979,45.7833 94.9655979,45.7353 C95.2395979,45.6863 95.4965979,45.8693 95.5455979,46.1403 Z M39.254537,21.7954 L71.2447682,22.6639578 C80.8515473,22.9243217 88.8841682,30.5908189 89.9287031,40.4978697 L91.5755918,56.0995186 C91.7024061,56.181103 91.7930295,56.3207784 91.8064979,56.4824 L92.6410979,66.2169 L92.7484571,67.2319562 C92.7536644,67.2829755 92.7514421,67.3330743 92.7426809,67.3810669 L95.0084979,93.8164 C95.0314979,94.0914 94.8274979,94.3344 94.5524979,94.3574 C94.5384979,94.3584 94.5234979,94.3594 94.5094979,94.3594 C94.2524979,94.3594 94.0334979,94.1634 94.0114979,93.9024 L91.5650979,65.3749 L88.9538038,40.6087277 C87.9622312,31.205115 80.3376165,23.9281467 71.2192678,23.6810044 L39.2290366,22.8124466 C38.9583402,22.8043102 38.7445293,22.5714065 38.7510805,22.2896846 C38.7582603,22.0089798 39.0309182,21.8025193 39.254537,21.7954 Z M94.3510979,0.4999 C94.6100979,0.4999 94.8270979,0.6979 94.8490979,0.9569 L96.6670979,22.9629 L100.958398,22.8957 C101.077198,22.8906231 101.205019,22.9466333 101.302742,23.0389983 L112.597098,22.8319 C124.927098,22.5989 135.342098,32.0599 136.296098,44.3609 C136.318098,44.6369 136.111098,44.8769 135.836098,44.8989 C135.823098,44.8999 135.810098,44.8999 135.797098,44.8999 C135.538098,44.8999 135.319098,44.7009 135.299098,44.4389 C134.397098,32.8049 124.657098,23.8279 113.035098,23.8279 C112.895098,23.8279 112.756098,23.8289 112.616098,23.8319 L96.2330979,24.1349 C96.1005338,24.1427974 95.9631965,24.0800519 95.8645261,23.9766405 L85.7523979,24.1377 L85.7443979,24.1377 C85.4723979,24.1377 85.2483979,23.9187 85.2443442,23.6457 C85.2403979,23.3697 85.4603979,23.1417 85.7363979,23.1377 L95.6660979,22.9789 L93.8930979,1.4999 L6.65009792,1.4999 C6.37409792,1.4999 6.15009792,1.2759 6.15009792,0.9999 C6.15009792,0.7239 6.37409792,0.4999 6.65009792,0.4999 L94.3510979,0.4999 Z" id="Combined-Shape" fill="#000"/>
            </g>
          </g>
        </g>
        <g id="Upper Body" transform="translate(8.000000, 265.000000) scale(1 1)">
          <g id="Upper Body/Video Call" stroke="none" stroke-width="1" fill="none" fill-rule="evenodd">
            <path d="M252.135,198.2885 C247.49,202.1595 236.136,181.5155 236.136,181.5155 C236.136,181.5155 205.944,178.1605 182.203,215.3195 C182.203,215.3195 196.912,228.2215 211.105,230.5455 C211.105,230.5455 204.654,298.7715 206.202,303.4155 C208.082649,304.967817 209.716983,305.771244 211.105,305.825781 C243.019722,307.079764 276.004357,304.185399 293.471094,305.825781 C298.548248,306.3026 301.169862,303.495048 301.335937,297.403125 L296.777,228.4805 C296.777,228.4805 311.164,226.9315 326.13,219.9655 C326.13,219.9655 312.776,180.9995 264.521,182.0315 C264.521,182.0315 256.779,194.4185 252.135,198.2885 Z" id="T-Shirt" fill="#83BB9E"/>
            <path d="M206.2022,303.4158 C205.9932,303.4158 205.7982,303.6248 205.7282,303.4158 C204.1632,298.7238 210.3442,233.0808 210.6072,230.4948 C210.6162,230.4238 211.3832,223.9238 214.8392,216.1488 C214.9522,215.8968 215.2482,215.7828 215.4992,215.8948 C215.7512,216.0068 215.8652,216.3028 215.7532,216.5548 C212.3632,224.1818 211.6092,230.5388 211.6012,230.6018 C209.3752,252.4258 205.4782,299.8228 206.6762,303.4158 C206.7642,303.6778 206.6222,303.3288 206.3602,303.4158 C206.3072,303.4338 206.2542,303.4158 206.2022,303.4158" id="Fill-6" fill="#000"/>
            <path d="M231.0851,215.1237 C232.5351,212.7477 242.6831,203.6067 243.4071,205.6607 C244.1311,207.7137 234.8301,217.0157 234.8301,217.0157 C234.8301,217.0157 249.5681,204.5737 251.7431,206.5057 C253.9171,208.4387 237.4881,221.0027 237.4881,221.0027 L237.514161,220.984785 C238.281774,220.457614 255.760155,208.48914 257.1421,210.7337 C258.5551,213.0297 239.7831,224.8687 239.7831,224.8687 C239.7831,224.8687 255.6081,215.9287 257.0591,217.8617 C258.5081,219.7947 242.2821,229.6887 242.2821,229.6887 C243.7321,231.1377 253.2731,229.2167 253.2731,229.2167 C256.3331,230.5057 247.6921,235.2797 240.6051,236.4067 C235.2891,237.2527 225.9861,252.0997 224.6931,253.6677 C217.5971,262.2707 195.8841,287.0317 180.4601,287.7877 C161.7831,288.7027 171.2471,239.7177 184.5531,217.2397 L184.5531,217.2397 L187.3741,219.3577 C192.0151,222.8847 199.0501,227.5567 208.1601,229.9157 L208.1601,229.9157 L208.1611,229.9167 L200.6021,246.5797 L211.8771,237.5527 C211.8771,237.5527 223.3531,229.3377 224.8031,225.1097 C226.2531,220.8817 231.0851,215.1237 231.0851,215.1237 Z M323.5415,221.1189 C323.5415,221.1189 342.2835,254.7049 327.3035,285.8729 C327.3035,285.8729 303.6255,294.8129 258.2035,258.3299 C258.2035,258.3299 242.4985,261.2289 234.5255,249.6319 L269.0755,252.0479 C269.0755,252.0479 307.0085,262.2489 309.6665,261.7389 C309.6665,261.7389 302.0095,252.7519 296.7775,228.4809 C296.7775,228.4809 314.4635,225.4659 323.5415,221.1189 Z M257.346434,172.9998 L257.346434,182.0318 L264.521,182.0318 C264.521,182.0318 256.779,194.4178 252.134,198.2888 C247.49,202.1598 236.135,181.5158 236.135,181.5158 L236.135,181.5158 L243.669434,181.5158 L243.669434,172.9998 L257.346434,172.9998 Z" id="Skin" fill="#f4d4b8"/>
            <path d="M298.553265,259.578621 L296.278,228.4608 C296.288,228.2138 296.477,228.0098 296.724,227.9838 C296.866,227.9688 310.934,226.3918 325.499,219.7068 C323.858,215.515806 309.198,181.7178 264.801,182.5258 C263.687,184.2898 256.813,195.0408 252.455,198.6728 C251.829,199.1938 251.078,199.3768 250.224,199.2158 C244.792,198.1898 236.066,182.4278 235.698,181.7568 C235.564,181.5148 235.653,181.2108 235.895,181.0778 C236.136,180.9448 236.441,181.0328 236.574,181.2748 C236.662,181.4348 245.438,197.2948 250.409,198.2328 C250.961,198.3358 251.423,198.2298 251.814,197.9038 C256.344,194.1298 264.02,181.8898 264.097,181.7668 C264.187,181.6238 264.342,181.5358 264.51,181.5318 C289.606,180.9998 305.161,191.4208 313.779,200.2618 C323.12,209.8448 326.57,219.7048 326.604,219.8028 C326.686,220.0448 326.573,220.3108 326.341,220.4178 C312.905,226.6728 299.774,228.6008 297.26,228.9248 L299.514509,259.639688 C299.514509,259.919922 299.320265,259.717227 299.053265,259.717227" id="Fill-8" fill="#000"/>
            <path d="M200.6026,247.0794 C200.4946,247.0794 200.3866,247.0444 200.2956,246.9744 C200.1136,246.8324 200.0516,246.5834 200.1466,246.3724 L207.7056,229.7094 C207.8196,229.4584 208.1146,229.3464 208.3676,229.4604 C208.6186,229.5754 208.7296,229.8714 208.6166,230.1224 L201.9206,244.8834 L211.5646,237.1624 C211.6996,237.0654 222.9486,228.9764 224.3306,224.9474 C225.7936,220.6814 230.5016,215.0394 230.7026,214.8024 C231.9466,212.7514 240.6816,204.5964 243.0656,204.8694 C243.4566,204.9104 243.7526,205.1384 243.8786,205.4944 C244.3076,206.7124 242.2426,209.5774 239.9456,212.2584 C244.6676,208.6514 250.5156,204.7444 252.0756,206.1324 C252.2516,206.2884 252.4576,206.5724 252.4406,207.0364 C252.3786,208.6974 248.7506,212.2624 245.1046,215.4374 C249.7856,212.5504 255.1036,209.6234 256.8426,209.9914 C257.2506,210.0774 257.4626,210.3004 257.5676,210.4714 C258.1256,211.3774 257.5776,213.1064 249.2846,219.0684 C248.8546,219.3764 248.4236,219.6834 247.9946,219.9844 C255.3446,216.4984 257.0636,217.0364 257.4586,217.5614 C257.5776,217.7204 257.7026,217.9914 257.6276,218.3844 C257.1456,220.8874 246.9126,227.4144 243.3396,229.6254 C245.2106,229.9914 249.9016,229.3854 253.1746,228.7264 C253.4426,228.6704 253.7086,228.8474 253.7636,229.1184 C253.8176,229.3894 253.6426,229.6524 253.3716,229.7074 C251.7346,230.0374 243.4896,231.6024 241.9286,230.0424 C241.8206,229.9334 241.7676,229.7814 241.7856,229.6294 C241.8036,229.4774 241.8916,229.3414 242.0216,229.2624 C250.2816,224.2244 256.8436,219.2364 256.6496,218.1424 C255.9146,217.3604 248.3026,220.6304 240.0296,225.3044 C239.7936,225.4354 239.4936,225.3584 239.3536,225.1244 C239.2146,224.8914 239.2876,224.5904 239.5166,224.4454 C249.2606,218.2994 257.1376,212.1404 256.7156,210.9944 C255.8076,210.1984 247.1326,214.9674 237.7716,221.4134 C237.5476,221.5684 237.2426,221.5154 237.0826,221.2964 C236.9236,221.0764 236.9686,220.7694 237.1846,220.6054 C242.6566,216.4204 251.3666,209.0264 251.4406,206.9994 C251.4446,206.9094 251.4226,206.8904 251.4116,206.8794 C250.5126,206.0904 244.0496,209.8874 235.1526,217.3974 C234.9476,217.5704 234.6436,217.5514 234.4616,217.3544 C234.2806,217.1574 234.2876,216.8514 234.4766,216.6624 C238.8426,212.2954 243.3176,206.9114 242.9356,205.8274 C241.9296,205.5044 233.3956,212.2964 231.5116,215.3834 C231.4206,215.5014 226.6786,221.1824 225.2766,225.2714 C223.7916,229.6014 212.6426,237.6204 212.1676,237.9594 L200.9146,246.9694 C200.8236,247.0424 200.7136,247.0794 200.6026,247.0794" id="Fill-13" fill="#000"/>
            <path d="M180.4595,288.2874 C180.1945,288.2874 179.9735,288.0794 179.9605,287.8114 C179.9475,287.5364 180.1595,287.3014 180.4355,287.2874 C195.7885,286.5354 217.8975,261.1204 224.3075,253.3494 C224.4835,253.1364 224.7985,253.1064 225.0115,253.2814 C225.2245,253.4574 225.2545,253.7724 225.0795,253.9854 C200.1625,284.1934 185.5925,288.0364 180.4845,288.2874 C180.4765,288.2874 180.4675,288.2874 180.4595,288.2874" id="Fill-15" fill="#000"/>
            <path d="M185.5352,262.2391 C185.4392,262.2391 185.3422,262.2121 185.2562,262.1541 C185.0272,262.0001 184.9672,261.6891 185.1202,261.4601 C191.0232,252.6861 200.2242,246.2331 200.3172,246.1691 C200.5452,246.0111 200.8552,246.0671 201.0132,246.2941 C201.1712,246.5211 201.1152,246.8321 200.8882,246.9901 C200.7972,247.0531 191.7452,253.4041 185.9512,262.0181 C185.8542,262.1611 185.6962,262.2391 185.5352,262.2391" id="Fill-17" fill="#000"/>
            <path d="M253.9458,259.1326 C248.5958,259.1326 239.5568,257.8326 234.1128,249.9146 C233.9568,249.6876 234.0148,249.3766 234.2418,249.2196 C234.4698,249.0626 234.7808,249.1206 234.9378,249.3486 C242.6308,260.5376 257.9578,257.8656 258.1128,257.8386 C258.3798,257.7846 258.6448,257.9666 258.6948,258.2396 C258.7448,258.5106 258.5658,258.7716 258.2938,258.8216 C258.2418,258.8316 256.5208,259.1326 253.9458,259.1326" id="Fill-21" fill="#000"/>
            <path d="M309.666,262.2391 C309.525,262.2391 309.384,262.1791 309.286,262.0631 C308.969,261.6931 301.487,252.7031 296.289,228.5861 C296.26,228.4531 296.287,228.3141 296.363,228.2001 C296.439,228.0881 296.559,228.0111 296.693,227.9881 C296.87,227.9581 314.415,224.9341 323.326,220.6681 C323.574,220.5481 323.874,220.6541 323.993,220.9031 C324.112,221.1521 324.006,221.4501 323.757,221.5701 C315.591,225.4801 300.365,228.3441 297.376,228.8831 C302.51,252.3341 309.972,261.3261 310.047,261.4151 C310.226,261.6251 310.2,261.9411 309.99,262.1201 C309.895,262.2001 309.781,262.2391 309.666,262.2391" id="Fill-23" fill="#000"/>
            <path d="M316.9683,269.1473 C316.8203,269.1473 316.6733,269.0813 316.5743,268.9553 C312.5393,263.8023 309.4693,262.2003 309.4383,262.1843 C309.1933,262.0593 309.0953,261.7573 309.2203,261.5113 C309.3453,261.2663 309.6443,261.1683 309.8933,261.2933 C310.0263,261.3613 313.1913,263.0143 317.3613,268.3393 C317.5313,268.5563 317.4933,268.8713 317.2763,269.0413 C317.1843,269.1123 317.0763,269.1473 316.9683,269.1473" id="Fill-25" fill="#000"/>
            <polygon id="Computer" fill="#F1EFEF" points="277.189 210.906 263.276 248.119 263.217 248.104 224.693 248.104 224.693 249.104 260.561 255.382 315.259 255.382 335.345 210.906"/>
            <path d="M260.7276,253.9798 C260.6996,253.9798 260.6716,253.9778 260.6446,253.9728 L224.8186,248.3368 C224.5466,248.2918 224.3626,248.0328 224.4086,247.7608 C224.4546,247.4888 224.7096,247.3058 224.9846,247.3508 L260.3976,252.9178 L276.5166,210.3808 C276.5876,210.1828 276.7756,210.0498 276.9866,210.0498 L335.3006,210.0498 C335.4706,210.0498 335.6286,210.1358 335.7206,210.2788 C335.8126,210.4218 335.8256,210.6018 335.7556,210.7558 L320.4396,244.6688 C320.3266,244.9208 320.0276,245.0328 319.7786,244.9188 C319.5266,244.8058 319.4146,244.5098 319.5286,244.2578 L334.5256,211.0498 L277.3386,211.0498 L261.1976,253.6488 C261.1256,253.8498 260.9356,253.9798 260.7276,253.9798" id="Fill-29" fill="#000"/>
          </g>
        </g>
        <g id="Hair" transform="translate(104.000000, 285.000000) scale(1 1)">
          <defs>
            <polygon id="hairshort-bieber-path-1" points="0 0.0003 46.889 0.0003 46.889 52.9562 0 52.9562"/>
          </defs>
          <g id="Hair/Short Bieber" stroke="none" stroke-width="1" fill="none" fill-rule="evenodd">
            <g id="Head" transform="translate(132.000000, 111.000000)">
              <path d="M44.1789,24.3663 C44.5879,35.6913 33.3599,45.0883 22.4569,45.0883 C11.5539,45.0883 0.4939,36.9643 0.0189,25.3903 C-0.4461,14.0673 7.7449,1.3583 15.9329,0.2613 C32.6079,-1.9747 43.6789,10.5083 44.1789,24.3663" id="Fill-1" fill="#000"/>
              <path d="M22.4567,44.088 C12.4757,44.088 1.4787,36.559 1.0177,25.35 C0.5797,14.678 8.3147,2.291 16.0657,1.252 C17.3127,1.085 18.5577,1 19.7657,1 C34.4247,1 42.7697,13.058 43.1797,24.402 C43.3447,28.984 41.4627,33.553 37.8807,37.268 C33.7607,41.538 27.9947,44.088 22.4567,44.088" id="Fill-4" fill="#f4d4b8"/>
            </g>
            <path d="M160.9833,116.9661 C160.9833,116.9661 165.2843,134.0361 181.2833,134.3811 C181.2833,134.3811 185.4953,107.6511 160.8943,104.0371 C160.8943,104.0371 160.7223,99.3931 164.1633,97.5001 C164.1633,97.5001 158.3143,97.1561 156.0773,103.3501 C156.0773,103.3501 149.7763,98.3611 146.3363,100.0801 C146.3363,100.0801 152.2923,103.5221 149.5403,105.2411 C149.5403,105.2411 132.0053,108.3641 128.7373,120.5781 C125.4683,132.7931 134.0523,143.7441 135.3943,149.4571 C135.3943,149.4571 135.7243,147.9551 135.3943,144.0981 C135.3943,144.0981 135.7443,144.5331 136.9843,146.9721 C136.9843,146.9721 145.4373,136.8181 142.0443,130.2571 C142.0443,130.2571 149.6293,128.8361 149.9733,122.6431 C149.9733,122.6431 150.8333,126.4281 158.4023,128.1491 C158.4023,128.1491 155.9083,125.2241 156.2093,123.5031 C156.2093,123.5031 158.5213,126.6801 164.9403,128.1491 C164.9403,128.1491 160.3643,121.1791 160.9833,116.9661" id="Hair" fill="#0a0500"/>
            <g id="Group-3" transform="translate(135.000000, 97.000000)">
              <mask id="hairshort-bieber-mask-2" fill="#ffffff">
                <polygon points="0 0.0003 46.889 0.0003 46.889 52.9562 0 52.9562" transform="matrix(1, 0, 0, 1, 0, 0)" fill="#ffffff"/>
              </mask>
              <g id="Clip-2"/>
              <path d="M41.2484,37.1232 C42.8154,37.5602 44.5134,37.8412 46.3784,37.8812 C46.5834,37.8552 46.8074,37.7362 46.8704,37.5192 C46.9324,37.3002 46.8394,37.0662 46.6444,36.9512 C46.5504,36.8942 37.2404,31.2732 37.6204,22.8952 C37.6334,22.6202 37.4194,22.3862 37.1434,22.3742 C36.8954,22.3502 36.6344,22.5742 36.6214,22.8512 C36.3094,29.7272 41.8124,34.7012 44.5924,36.7652 C30.6324,35.2452 26.6144,20.0042 26.5744,19.8442 C26.5154,19.6122 26.2994,19.4372 26.0634,19.4672 C25.8254,19.4782 25.6294,19.6572 25.5944,19.8942 C25.0964,23.2802 27.7024,28.2042 28.9714,30.3572 C28.1354,30.1192 27.3904,29.8512 26.7144,29.5702 C25.2244,28.9282 23.4714,27.9382 21.9294,26.4532 C21.7924,26.3032 21.7224,26.2122 21.7184,26.2072 C21.6844,26.1612 21.6324,26.1392 21.5854,26.1072 C20.0994,24.5682 18.8534,22.5392 18.3124,19.8662 C18.2574,19.5962 17.9954,19.4212 17.7234,19.4762 C17.4524,19.5302 17.2774,19.7952 17.3314,20.0652 C17.9094,22.9152 19.2274,25.0832 20.8024,26.7302 C20.7684,27.8942 21.5614,29.3142 22.2394,30.3032 C16.3854,28.5822 15.5734,25.5602 15.5664,25.5322 C15.5614,25.5122 15.5494,25.4952 15.5424,25.4762 C15.5314,25.4442 15.5194,25.4152 15.5034,25.3872 C15.4934,25.3702 15.4814,25.3562 15.4704,25.3422 C15.3724,25.2112 15.2224,25.1232 15.0484,25.1442 C15.0464,25.1442 15.0444,25.1452 15.0424,25.1452 C15.0404,25.1452 15.0394,25.1442 15.0374,25.1442 C14.9734,25.1492 14.9144,25.1672 14.8594,25.1932 C14.8484,25.1992 14.8394,25.2102 14.8284,25.2172 C14.7864,25.2412 14.7464,25.2692 14.7134,25.3052 C14.6984,25.3212 14.6894,25.3412 14.6774,25.3582 C14.6544,25.3912 14.6324,25.4232 14.6174,25.4602 C14.6074,25.4832 14.6054,25.5102 14.5994,25.5352 C14.5934,25.5612 14.5814,25.5872 14.5804,25.6152 C14.4014,28.8262 12.0784,30.6802 10.0604,31.6912 C9.1804,32.1042 8.2694,32.4302 7.4134,32.6832 C7.1984,32.7372 7.0664,32.7642 7.0574,32.7662 C7.0164,32.7732 6.9834,32.7982 6.9464,32.8152 C5.0864,33.3222 3.6074,33.4852 3.5664,33.4892 C3.2914,33.5172 3.0914,33.7632 3.1194,34.0372 C3.1454,34.2952 3.3634,34.4862 3.6164,34.4862 C3.6334,34.4862 3.6504,34.4852 3.6674,34.4832 C3.8294,34.4672 5.1574,34.3222 6.8704,33.8882 C9.1564,39.1862 3.8374,46.8572 2.1774,49.0492 C1.2314,47.2312 0.9244,46.8282 0.8904,46.7842 C0.7524,46.6132 0.5194,46.5522 0.3134,46.6342 C0.1094,46.7152 -0.0176,46.9212 0.0014,47.1412 C0.3184,50.8422 0.0144,52.3372 0.0114,52.3522 C-0.0456,52.6212 0.1254,52.8872 0.3944,52.9452 C0.4304,52.9522 0.4654,52.9562 0.5004,52.9562 C0.7304,52.9562 0.9364,52.7982 0.9884,52.5642 C0.9994,52.5142 1.2064,51.5312 1.1294,49.2022 C1.2804,49.4882 1.4514,49.8182 1.6444,50.1982 C1.7214,50.3492 1.8674,50.4502 2.0344,50.4692 C2.2044,50.4872 2.3674,50.4212 2.4744,50.2922 C2.5254,50.2312 2.7394,49.9702 3.0554,49.5552 L3.6864,48.6942 C5.8644,45.6322 9.9954,38.8102 7.8644,33.6122 C10.9354,32.6912 14.6784,30.8612 15.4434,27.3552 C16.4714,28.7002 18.6874,30.5652 23.3974,31.6362 C23.6104,31.6872 23.8254,31.5932 23.9364,31.4072 C24.0484,31.2232 24.0284,30.9882 23.8894,30.8242 C23.2964,30.1302 22.5084,28.9962 22.0854,27.9922 C23.0234,28.7892 24.5814,29.8452 26.9044,30.7232 C26.9154,30.7272 26.9264,30.7312 26.9374,30.7362 C27.0404,30.7742 27.1374,30.8142 27.2434,30.8522 C28.8094,31.4382 29.9304,31.6362 29.9644,31.6422 C29.9924,31.6462 30.0194,31.6482 30.0464,31.6482 C30.1074,31.6482 30.1664,31.6372 30.2224,31.6162 C30.2284,31.6132 30.2324,31.6082 30.2394,31.6062 C30.3174,31.5722 30.3834,31.5182 30.4354,31.4502 C30.4414,31.4432 30.4514,31.4412 30.4564,31.4342 C30.4594,31.4302 30.4584,31.4242 30.4604,31.4202 C30.4984,31.3632 30.5274,31.3012 30.5394,31.2292 C30.5414,31.2132 30.5364,31.1982 30.5374,31.1822 C30.5394,31.1602 30.5364,31.1412 30.5354,31.1192 C30.5304,31.0392 30.5104,30.9652 30.4714,30.8982 C30.4664,30.8912 30.4684,30.8822 30.4634,30.8742 C30.4334,30.8272 28.3304,27.5962 27.2124,24.2892 C29.1644,28.4052 33.1224,34.3882 40.2114,36.8042 L41.2484,37.1232 Z M14.8724,7.1132 C14.8744,7.2822 14.8274,7.5382 14.3804,7.8172 C14.1464,7.9642 14.0754,8.2712 14.2224,8.5062 C14.3684,8.7412 14.6764,8.8122 14.9114,8.6652 C15.7194,8.1602 15.8794,7.5332 15.8724,7.0962 C15.8474,5.6442 13.8734,4.0822 12.6344,3.2432 C15.8804,2.8312 20.8174,6.6982 20.8734,6.7412 C20.9994,6.8422 21.1674,6.8782 21.3194,6.8302 C21.4744,6.7862 21.5984,6.6712 21.6534,6.5192 C23.0284,2.7112 25.8104,1.5202 27.5984,1.1542 C25.3974,3.4332 25.4944,6.8852 25.5004,7.0562 C25.5094,7.2972 25.6894,7.4972 25.9274,7.5322 C31.4314,8.3402 35.9014,10.4082 39.2134,13.6792 C39.3114,13.7752 39.4374,13.8232 39.5644,13.8232 C39.6934,13.8232 39.8224,13.7732 39.9204,13.6752 C40.1144,13.4782 40.1124,13.1612 39.9154,12.9682 C36.5374,9.6312 32.0284,7.4932 26.5084,6.6092 C26.5654,5.4842 26.9564,2.3422 29.5094,0.9382 C29.7054,0.8312 29.8054,0.6072 29.7564,0.3902 C29.7074,0.1732 29.5204,0.0142 29.2984,0.0012 C29.2394,0.0052 23.4554,-0.2728 20.9584,5.5562 C19.3154,4.3642 14.3254,1.0802 11.2174,2.6332 C11.0534,2.7152 10.9474,2.8812 10.9412119,3.0642 C10.9364,3.2492 11.0314,3.4212 11.1914,3.5132 C12.6044,4.3302 14.8534,6.0312 14.8724,7.1132 L14.8724,7.1132 Z" id="Fill-1" fill="#000" mask="url(#hairshort-bieber-mask-2)"/>
            </g>
          </g>
        </g>
        <g id="Expression" transform="translate(201.000000, 388.000000) scale(1 1)">
          <g id="Expression/Funny Laugh" stroke="none" stroke-width="1" fill="none" fill-rule="evenodd">
            <path d="M60.9368,45.2717 C59.4258,42.9937 56.6708,43.0077 54.8978,43.3137 C55.1768,43.6997 55.5208,44.0457 55.9258,44.3227 C57.0578,45.0947 58.7688,45.7647 60.9368,45.2717" id="Tougue" fill="#EC7068"/>
            <path d="M57.9329,30.2453 C58.0309,30.3433 58.1589,30.3913 58.2869,30.3913 C58.4139,30.3913 58.5419,30.3433 58.6399,30.2453 C58.8349,30.0503 58.8349,29.7333 58.6399,29.5383 C54.7889,25.6873 50.1889,29.4693 50.1439,29.5093 C49.9319,29.6863 49.9049,30.0003 50.0819,30.2123 C50.2579,30.4223 50.5729,30.4523 50.7869,30.2753 C50.9459,30.1423 54.7369,27.0493 57.9329,30.2453 M74.5239,29.5093 C74.4789,29.4703 69.8749,25.6923 66.0279,29.5383 C65.8319,29.7333 65.8319,30.0503 66.0279,30.2453 C66.1249,30.3433 66.2529,30.3913 66.3809,30.3913 C66.5089,30.3913 66.6369,30.3433 66.7349,30.2453 C69.9329,27.0473 73.7219,30.1423 73.8809,30.2753 C74.0939,30.4523 74.4099,30.4223 74.5849,30.2123 C74.7629,30.0003 74.7359,29.6863 74.5239,29.5093 M51.0109,26.3153 C51.1139,26.3153 51.2159,26.2853 51.3049,26.2203 C53.3459,24.7373 55.3819,25.0233 55.4039,25.0273 C55.6739,25.0683 55.9309,24.8823 55.9729,24.6093 C56.0149,24.3373 55.8299,24.0823 55.5579,24.0393 C55.4589,24.0223 53.1069,23.6743 50.7169,25.4113 C50.4939,25.5733 50.4449,25.8863 50.6069,26.1093 C50.7039,26.2443 50.8569,26.3153 51.0109,26.3153 M69.2629,25.0273 C69.2849,25.0233 71.3219,24.7373 73.3619,26.2203 C73.4509,26.2843 73.5529,26.3153 73.6559,26.3153 C73.8099,26.3153 73.9619,26.2443 74.0599,26.1093 C74.2219,25.8863 74.1729,25.5733 73.9499,25.4113 C71.5599,23.6743 69.2069,24.0223 69.1089,24.0393 C68.8359,24.0823 68.6519,24.3373 68.6939,24.6093 C68.7359,24.8823 68.9969,25.0693 69.2629,25.0273 M62.7529,44.6273 C59.7049,46.1453 57.3589,45.3003 55.9259,44.3233 C55.1989,43.8263 54.6449,43.1183 54.3679,42.3273 C54.1979,41.8423 54.2329,41.6223 54.2809,41.5703 C54.5789,41.2413 56.3949,41.6743 57.7199,41.9923 C59.3089,42.3723 61.1099,42.8043 62.7639,42.8083 C63.0429,42.8083 63.2229,42.9723 63.2989,43.2953 C63.4059,43.7513 63.2279,44.3903 62.7529,44.6273 M62.7659,41.8083 C61.2289,41.8053 59.4889,41.3873 57.9529,41.0193 C55.7949,40.5013 54.2359,40.1283 53.5379,40.9003 C53.0119,41.4823 53.3219,42.3673 53.4239,42.6583 C53.7709,43.6483 54.4589,44.5333 55.3629,45.1493 C56.2139,45.7293 57.6459,46.4503 59.5019,46.4503 C60.5969,46.4503 61.8399,46.1993 63.1999,45.5213 C64.1579,45.0433 64.4679,43.9003 64.2729,43.0673 C64.0909,42.2923 63.5139,41.8093 62.7659,41.8083 M64.1499,37.1593 C63.8609,37.7673 63.0669,38.0763 61.7889,38.0763 C60.5119,38.0763 59.7179,37.7673 59.4289,37.1593 C58.7339,35.6943 60.6369,32.6573 61.7889,31.1173 C62.9419,32.6573 64.8449,35.6943 64.1499,37.1593 M61.4029,29.9873 C60.9829,30.5013 57.3359,35.0783 58.5259,37.5873 C58.9949,38.5753 60.0919,39.0763 61.7889,39.0763 C63.4869,39.0763 64.5839,38.5753 65.0529,37.5873 C66.2429,35.0783 62.5959,30.5013 62.1759,29.9873 C61.9869,29.7553 61.5919,29.7553 61.4029,29.9873" id="Fill-4" fill="#000"/>
            <path d="M52.4996066,33 C54.4327301,33 56,33.8954741 56,35 C56,36.1045259 54.4327301,37 52.4996066,37 C50.5664831,37 49,36.1045259 49,35 C49,33.8954741 50.5664831,33 52.4996066,33 Z M70.5,33 C72.4329063,33 74,33.8954741 74,35 C74,36.1045259 72.4329063,37 70.5,37 C68.5670937,37 67,36.1045259 67,35 C67,33.8954741 68.5670937,33 70.5,33 Z" id="Cheeks" fill="#E2A2B5"/>
          </g>
        </g>
        <g id="Facial Hair" transform="translate(201.000000, 387.000000) scale(1 1)" fill="#000">
          <g id="Facial Hair/None" stroke="none" stroke-width="1" fill="none" fill-rule="evenodd" fill-opacity="0"/>
        </g>
        <g id="Accesories" transform="translate(104.500000, 286.000000) scale(1 1)">
          <g id="Accesories/None" stroke="none" stroke-width="1" fill="none" fill-rule="evenodd" fill-opacity="0"/>
        </g>
      </g>
    </g>
    <g transform="translate(121.000000, -27.000000) scale(1 1)" id="Master/Character/Sitting on Chair">
      <defs>
        <polygon id="mastercharactersitting-on-chair-path-1" points="0 0.0003 46.889 0.0003 46.889 52.9562 0 52.9562"/>
      </defs>
      <g id="Master/Character/Sitting on Chair" stroke="none" stroke-width="1" fill="none" fill-rule="evenodd">
        <g id="Lower Body/Sitting on Chair" transform="translate(71.000000, 393.000000) scale(1 1)">
          <g id="Lower Body/Sitting on Chair/Red Sandals" stroke="none" stroke-width="1" fill="none" fill-rule="evenodd">
            <g id="Group" transform="translate(135.999802, 170.499900)">
              <path d="M171.385998,181.0527 C165.388998,177.3777 137.739998,167.0987 137.110998,158.7277 C136.134998,145.7357 136.167998,124.9637 136.340998,110.0237 C128.285998,110.8727 119.012998,111.7577 109.150998,112.5217 L120.312998,158.9277 C120.852998,163.1147 121.579998,163.5157 117.027998,173.0137 C116.591998,173.9227 116.313998,174.7517 116.155998,175.5127 C106.130998,170.7557 93.6649979,164.3177 93.2459979,158.7277 C92.2699979,145.7357 92.3029979,124.9637 92.4759979,110.0237 C84.4209979,110.8727 75.1479979,111.7577 65.2849979,112.5217 L76.4479979,158.9277 C76.9879979,163.1147 77.7149979,163.5157 73.1629979,173.0137 C68.8489979,182.0107 79.4019979,183.4347 79.4019979,183.4347 L126.803998,183.553705 C126.993998,183.553705 127.173998,183.5147 127.337998,183.4457 L170.669998,183.553705 C171.416998,183.5557 172.023998,182.9497 172.023998,182.2027 C172.023998,181.7327 171.786998,181.2977 171.385998,181.0527" id="Skin" fill="#c3986a"/>
              <path d="M6.65009792,1 C6.65009792,1 -3.29290208,38.578 1.13709792,51.375 C5.12809792,62.902 13.5410979,70.907 51.7270979,67.749 C51.7270979,67.749 66.2290979,145.492 66.2290979,146.194 C66.2290979,146.795 89.9940979,144.317 96.8980979,143.585 C97.9310979,143.475 98.6860979,142.559 98.5970979,141.523 L91.3090979,65.524 L96.9250979,65.758 L110.912098,142.144 C111.074098,143.135 111.977098,143.831 112.977098,143.735 L142.096098,140.949 C143.132098,140.85 143.898098,139.938 143.817098,138.901 L135.797098,44.4 C134.863098,32.345 124.695098,23.108 112.607098,23.332 L96.2230979,23.635 L94.3510979,1 L6.65009792,1 Z" id="Pants" fill="#E2A2B5"/>
              <path d="M171.778598,183.5029 L164.397598,183.5029 L164.397598,175.9029 C164.397598,175.3989 164.088598,174.9429 163.618598,174.7569 L157.300598,172.2499 C156.490598,171.9289 155.611598,172.5249 155.611598,173.3969 L155.611598,183.5029 L120.531598,183.5029 L120.531598,175.9029 C120.531598,175.3989 120.223598,174.9429 119.753598,174.7569 L113.435598,172.2499 C112.625598,171.9289 111.746598,172.5249 111.746598,173.3969 L111.746598,183.5029 L73.8685979,183.5029 C72.6285979,183.5029 71.6235979,184.5079 71.6235979,185.7469 L71.6235979,186.1389 C71.6235979,187.3779 72.6285979,188.3829 73.8685979,188.3829 L171.778598,188.3829 C173.018598,188.3829 174.023598,187.3779 174.023598,186.1389 L174.023598,185.7469 C174.023598,184.5079 173.018598,183.5029 171.778598,183.5029" id="Sandals" fill="#EC7068"/>
              <path d="M155.612298,172.8965 C155.888298,172.8965 156.112298,173.1205 156.112298,173.3965 L156.112298,173.3965 L156.112298,184.0025 L130.015298,184.0025 C130.410298,184.4785 130.658298,185.0815 130.658298,185.7475 L130.658298,185.7475 L130.658298,186.1385 C130.658298,186.4155 130.435298,186.6385 130.158298,186.6385 C129.882298,186.6385 129.658298,186.4155 129.658298,186.1385 L129.658298,186.1385 L129.658298,185.7475 C129.658298,184.7855 128.875298,184.0025 127.914298,184.0025 L127.914298,184.0025 L120.532298,184.0025 C120.255298,184.0025 120.032298,183.7795 120.032298,183.5025 C120.032298,183.2265 120.255298,183.0025 120.532298,183.0025 L120.532298,183.0025 L127.914298,183.0025 C127.937298,183.0025 127.959298,183.0095 127.983298,183.0095 C127.985298,183.0075 127.988298,183.0045 127.991298,183.0025 L127.991298,183.0025 L155.112298,183.0025 L155.112298,173.3965 C155.112298,173.1205 155.335298,172.8965 155.612298,172.8965 Z M93.2082979,158.2285 C93.4832979,158.2085 93.7242979,158.4155 93.7442979,158.6905 C94.0832979,163.2045 103.290298,168.5905 111.953298,172.9115 C111.951298,172.9205 111.952298,172.9315 111.950298,172.9415 C112.124298,173.0195 112.247298,173.1925 112.247298,173.3965 L112.247298,173.3965 L112.247298,184.0025 L73.8692979,184.0025 C72.9072979,184.0025 72.1242979,184.7855 72.1242979,185.7475 C72.1242979,186.0235 71.9002979,186.2475 71.6242979,186.2475 C71.3482979,186.2475 71.1242979,186.0235 71.1242979,185.7475 C71.1242979,184.2345 72.3552979,183.0025 73.8692979,183.0025 L73.8692979,183.0025 L111.247298,183.0025 L111.247298,173.6785 C102.265298,169.1905 93.1212979,163.7445 92.7472979,158.7645 C92.7272979,158.4895 92.9332979,158.2505 93.2082979,158.2285 Z M120.679298,177.0845 C123.854298,178.5715 126.369298,179.7595 127.782298,180.6265 C128.331298,180.9615 128.658298,181.5505 128.658298,182.2035 C128.658298,182.4795 128.435298,182.7035 128.158298,182.7035 C127.882298,182.7035 127.658298,182.4795 127.658298,182.2035 C127.658298,181.9025 127.509298,181.6315 127.260298,181.4795 C125.924298,180.6615 123.399298,179.4635 120.440298,178.0795 C120.441298,178.0335 120.433298,177.9875 120.433298,177.9415 C120.442298,177.7265 120.442298,177.5115 120.428298,177.2975 C120.510298,177.2255 120.605298,177.1655 120.679298,177.0845 Z M83.5140688,161.60037 L83.6052979,161.6125 C83.8742979,161.6755 84.0402979,161.9445 83.9782979,162.2135 L83.9782979,162.2135 L83.5972979,163.8415 C83.2062979,165.5175 83.6982979,167.2445 84.9152979,168.4595 C85.1102979,168.6555 85.1102979,168.9715 84.9152979,169.1675 C84.8172979,169.2645 84.6892979,169.3135 84.5612979,169.3135 C84.4332979,169.3135 84.3052979,169.2645 84.2072979,169.1675 C82.7452979,167.7055 82.1532979,165.6295 82.6232979,163.6145 L82.6232979,163.6145 L83.0032979,161.9855 C83.0672979,161.7165 83.3292979,161.5515 83.6052979,161.6125 Z M127.378805,161.60037 L127.470298,161.6125 C127.738298,161.6755 127.905298,161.9445 127.843298,162.2135 L127.843298,162.2135 L127.462298,163.8415 C127.070298,165.5175 127.562298,167.2445 128.779298,168.4595 C128.975298,168.6555 128.975298,168.9715 128.779298,169.1675 C128.682298,169.2645 128.554298,169.3135 128.426298,169.3135 C128.298298,169.3135 128.170298,169.2645 128.072298,169.1675 C126.609298,167.7055 126.018298,165.6295 126.487298,163.6145 L126.487298,163.6145 L126.868298,161.9855 C126.932298,161.7165 127.193298,161.5515 127.470298,161.6125 Z M50.3822979,46.1545 L52.2212979,58.6755 C54.6427979,73.1583 66.7287979,145.4863 66.7287979,146.1943 C66.7287979,146.4703 66.5047979,146.6943 66.2287979,146.6943 C65.9527979,146.6943 65.7287979,146.4703 65.7287979,146.1943 C65.6257979,145.0633 56.2027979,88.5503 51.2337979,58.8313 L51.2322979,58.8215 L51.2322979,58.8215 L49.3932979,46.3005 C49.3532979,46.0265 49.5422979,45.7725 49.8152979,45.7325 C50.0942979,45.6895 50.3422979,45.8815 50.3822979,46.1545 Z M95.5455979,46.1403 L97.4175979,56.6713 C97.41805,56.6754093 97.4182255,56.676454 97.4183979,56.6775 L111.405398,142.0625 C111.450398,142.3345 111.265398,142.5925 110.993398,142.6365 C110.965398,142.6415 110.938398,142.6435 110.911398,142.6435 C110.670398,142.6435 110.458398,142.4695 110.418398,142.2245 L96.4313979,56.8395 L94.5605979,46.3153 C94.5125979,46.0433 94.6935979,45.7833 94.9655979,45.7353 C95.2395979,45.6863 95.4965979,45.8693 95.5455979,46.1403 Z M39.254537,21.7954 L71.2447682,22.6639578 C80.8515473,22.9243217 88.8841682,30.5908189 89.9287031,40.4978697 L91.5755918,56.0995186 C91.7024061,56.181103 91.7930295,56.3207784 91.8064979,56.4824 L92.6410979,66.2169 L92.7484571,67.2319562 C92.7536644,67.2829755 92.7514421,67.3330743 92.7426809,67.3810669 L95.0084979,93.8164 C95.0314979,94.0914 94.8274979,94.3344 94.5524979,94.3574 C94.5384979,94.3584 94.5234979,94.3594 94.5094979,94.3594 C94.2524979,94.3594 94.0334979,94.1634 94.0114979,93.9024 L91.5650979,65.3749 L88.9538038,40.6087277 C87.9622312,31.205115 80.3376165,23.9281467 71.2192678,23.6810044 L39.2290366,22.8124466 C38.9583402,22.8043102 38.7445293,22.5714065 38.7510805,22.2896846 C38.7582603,22.0089798 39.0309182,21.8025193 39.254537,21.7954 Z M94.3510979,0.4999 C94.6100979,0.4999 94.8270979,0.6979 94.8490979,0.9569 L96.6660979,22.9629 L100.958398,22.8957 C101.077598,22.890606 101.20588,22.9470111 101.303728,23.0399325 L112.597098,22.8319 C124.927098,22.5989 135.342098,32.0599 136.296098,44.3609 C136.318098,44.6369 136.111098,44.8769 135.836098,44.8989 C135.823098,44.8999 135.810098,44.8999 135.797098,44.8999 C135.538098,44.8999 135.319098,44.7009 135.299098,44.4389 C134.397098,32.8049 124.657098,23.8279 113.035098,23.8279 C112.895098,23.8279 112.756098,23.8289 112.616098,23.8319 L96.2330979,24.1349 C96.1005338,24.1427974 95.9631965,24.0800519 95.8645261,23.9766405 L85.7523979,24.1377 L85.7443979,24.1377 C85.4723979,24.1377 85.2483979,23.9187 85.2443442,23.6457 C85.2403979,23.3697 85.4603979,23.1417 85.7363979,23.1377 L95.6660979,22.9789 L93.8930979,1.4999 L6.65009792,1.4999 C6.37409792,1.4999 6.15009792,1.2759 6.15009792,0.9999 C6.15009792,0.7239 6.37409792,0.4999 6.65009792,0.4999 L94.3510979,0.4999 Z" id="Combined-Shape" fill="#000"/>
            </g>
          </g>
        </g>
        <g id="Upper Body" transform="translate(8.000000, 265.000000) scale(1 1)">
          <g id="Upper Body/Working" stroke="none" stroke-width="1" fill="none" fill-rule="evenodd">
            <path d="M309.7378,252.8214 C308.6218,256.0324 300.0308,257.0394 293.4438,257.3364 C293.9308,241.0084 294.5558,225.9074 294.5558,225.9074 C294.5558,225.9074 311.5788,247.5314 309.7378,252.8214 M198.2368,241.5414 C203.6998,234.0044 212.6638,228.2084 212.6638,228.2084 C212.6638,228.2084 211.9008,235.3924 210.7778,245.0494 C203.5618,245.9244 194.8878,246.1614 198.2368,241.5414 M262.3508,184.2714 L251.3088,207.5054 L237.2768,184.7314 C237.2768,184.7314 229.8218,186.0084 219.6578,190.3464 L216.2998,191.8504 C203.0168,198.0834 186.3378,209.3414 175.3448,229.0614 C154.4878,266.4794 182.2178,277.9274 206.5728,277.8094 C206.0588,281.2844 205.5528,284.4534 205.0718,287.0964 C201.8518,304.8094 205.0718,305.5004 205.0718,305.5004 L292.9458,305.5004 C292.9458,305.5004 299.9722,306.397312 298.8222,297.195312 C298.5632,295.122312 298.7792,293.1504 298.8222,287.0964 C338.789062,291.005859 334.2758,259.1564 334.2758,259.1564 C325.5428,184.2714 262.3508,184.2714 262.3508,184.2714 Z" id="Sweater" fill="#94B1EB"/>
            <polygon id="Laptop" fill="#F1EFEF" points="295.9927 215.0607 282.0797 252.2737 282.0207 252.2587 243.4967 252.2587 243.4967 253.2587 279.3647 259.5367 334.0617 259.5367 354.1477 215.0607"/>
            <path d="M299.4468,259.5363 L278.9688,259.5363 L253.9818,255.1633 C262.2028,265.1363 276.6118,262.4843 276.6118,262.4843 C284.3618,268.7093 291.7418,274.2273 298.2168,278.0773 C298.6418,267.4183 299.5398,262.8073 299.4468,259.5363 L299.4468,259.5363 Z M275.9208,251.8843 C276.7008,251.9283 277.0218,250.9053 276.3588,250.4923 C274.3818,249.2623 271.2918,247.4883 267.6068,245.8423 C269.9868,245.8443 271.4088,245.6063 270.2888,244.8863 C265.6968,241.9293 251.0988,241.5413 251.0988,241.5413 C251.0658,241.5513 251.0408,241.5603 251.0088,241.5703 C250.0518,241.5433 249.0968,241.5463 248.1508,241.6213 C233.7388,242.7753 218.7178,247.9923 218.7178,247.9923 L217.7858,267.6603 C217.7858,267.6603 243.5718,253.5813 249.8138,252.0543 C254.6988,250.8573 269.6488,251.5333 275.9208,251.8843 L275.9208,251.8843 Z M262.3508,184.2713 L257.350561,182.2013 L257.350561,172.9993 L243.549561,172.9993 L243.549561,182.6613 L237.2768,184.7313 L251.3088,207.5053 L262.3508,184.2713 Z" id="Skin" fill="#c3986a"/>
            <path d="M294.6851,287.8634 C294.5541,287.8634 294.4221,287.8494 294.2891,287.8234 C293.7061,287.7094 293.2561,287.3954 292.9531,286.8934 C291.8441,285.0614 293.0251,281.0724 293.9731,277.8664 C294.1291,277.3404 294.2751,276.8484 294.3941,276.4144 C294.4671,276.1474 294.7451,275.9934 295.0091,276.0644 C295.2761,276.1384 295.4321,276.4144 295.3591,276.6794 C295.2371,277.1204 295.0901,277.6174 294.9321,278.1504 C294.1341,280.8464 292.9281,284.9224 293.8081,286.3764 C293.9641,286.6344 294.1791,286.7824 294.4821,286.8424 C294.7971,286.9014 295.0791,286.8234 295.3711,286.5864 C297.6491,284.7334 299.0991,274.7884 299.2501,259.9824 C299.2531,259.7084 299.4771,259.4874 299.7501,259.4874 L299.7551,259.4874 C300.0321,259.4904 300.2531,259.7164 300.25013,259.9924 C300.1591,268.9984 299.4841,284.5294 296.0011,287.3624 C295.5911,287.6954 295.1501,287.8634 294.6851,287.8634" id="Fill-9" fill="#000"/>
            <path d="M299.2779,287.8341 C298.1339,287.8341 296.9589,287.8181 295.7519,287.7871 C295.4749,287.7791 295.2569,287.5501 295.263736,287.2741 C295.2719,286.9991 295.5159,286.7791 295.7769,286.7871 C306.6269,287.0711 314.8199,286.0821 320.1729,283.8541 C320.4279,283.7521 320.7199,283.8681 320.8269,284.1231 C320.9319,284.3781 320.8119,284.6711 320.5569,284.7771 C315.6749,286.8091 308.5279,287.8341 299.2779,287.8341" id="Fill-11" fill="#000"/>
            <path d="M280.9185,258.6349 C280.8915,258.6349 280.8625,258.6329 280.8355,258.6279 L246.6335,252.8529 C246.3605,252.8069 246.1775,252.5489 246.2235,252.2769 C246.2695,252.0039 246.5375,251.8229 246.7995,251.8659 L280.5895,257.5729 L296.0345,214.5349 C296.1065,214.3369 296.2945,214.2039 296.5055,214.2039 L354.6605,214.2039 C354.8305,214.2039 354.9885,214.2899 355.0805,214.4329 C355.1725,214.5749 355.1865,214.7549 355.1165,214.9099 L339.8015,248.8239 C339.6875,249.0759 339.3915,249.1869 339.1395,249.0739 C338.8885,248.9599 338.7755,248.6639 338.8895,248.4119 L353.8865,215.2039 L296.8565,215.2039 L281.3895,258.3039 C281.3165,258.5049 281.1265,258.6349 280.9185,258.6349" id="Fill-13" fill="#000"/>
            <path d="M237.2368,257.8361 C237.0728,257.8361 236.9108,257.7551 236.8158,257.6061 C236.6668,257.3731 236.7348,257.0641 236.9668,256.9151 C241.6468,253.9221 249.3488,251.6681 249.6748,251.5731 C254.6538,250.3561 269.7068,251.0361 275.9488,251.3851 C276.1248,251.3931 276.1828,251.2791 276.2038,251.2101 C276.2218,251.1531 276.2468,251.0121 276.0938,250.9171 C271.3698,247.9791 259.1948,241.2471 248.1908,242.1201 C248.0638,242.1331 234.4678,243.5121 225.6658,246.3191 C225.3988,246.4011 225.1208,246.2571 225.0368,245.9951 C224.9528,245.7321 225.0978,245.4501 225.3608,245.3661 C234.2648,242.5261 247.9648,241.1391 248.1008,241.1251 C259.4268,240.2181 271.8138,247.0771 276.6228,250.0671 C277.1188,250.3761 277.3328,250.9561 277.1568,251.5121 C276.9818,252.0661 276.4608,252.4251 275.8918,252.3831 C269.6938,252.0371 254.7578,251.3581 249.9328,252.5391 C249.8748,252.5571 242.0628,254.8431 237.5068,257.7571 C237.4228,257.8111 237.3298,257.8361 237.2368,257.8361" id="Fill-15" fill="#000"/>
            <path d="M273.6284,252.0822 C273.5004,252.0822 273.3724,252.0332 273.2744,251.9362 C267.0384,245.7022 256.7364,245.6232 256.6334,245.6232 C256.3574,245.6232 256.1334,245.3992 256.1334,245.1232 C256.1334,244.8472 256.3574,244.6232 256.6334,244.6232 C257.0714,244.6232 267.4474,244.6972 273.9824,251.2282 C274.1774,251.4242 274.1774,251.7402 273.9824,251.9362 C273.8844,252.0332 273.7564,252.0822 273.6284,252.0822" id="Fill-17" fill="#000"/>
            <path d="M269.5611,252.0822 C269.3741,252.0822 269.1951,251.9772 269.1091,251.7962 C267.6761,248.7742 259.3251,248.3882 256.2291,248.5042 C255.9631,248.5062 255.7221,248.2972 255.7111,248.0212 C255.7021,247.7452 255.9171,247.5142 256.1941,247.5042 C256.6761,247.4912 268.0061,247.1362 270.0131,251.3682 C270.1311,251.6172 270.0251,251.9152 269.7751,252.0342 C269.7071,252.0662 269.6331,252.0822 269.5611,252.0822" id="Fill-19" fill="#000"/>
            <path d="M267.6504,246.3431 C267.3274,246.3361 267.1194,246.1281 267.1194,245.8431 C267.1194,245.5661 267.3434,245.3431 267.6194,245.3431 L267.6474,245.3431 C268.8494,245.3431 269.5104,245.2771 269.8694,245.2141 C265.2834,242.4491 251.2294,242.0451 251.0854,242.0411 C250.8104,242.0331 250.5924,241.8041 250.599236,241.5271 C250.6074,241.2561 250.8284,241.0411 251.0994,241.0411 L251.1124,241.0411 C251.7144,241.0581 265.9034,241.4671 270.5594,244.4661 C271.0614,244.7891 271.2604,245.1411 271.1504,245.5131 C270.9964,246.0381 270.3724,246.3431 267.6504,246.3431 L267.6504,246.3431 Z" id="Fill-21" fill="#000"/>
            <path d="M210.7788,245.549 C210.7628,245.549 210.7488,245.548 210.7338,245.547 C210.4588,245.523 210.2558,245.28 210.2798,245.005 C212.1458,223.895 213.3678,217.834 213.3808,217.776 C213.4348,217.504 213.7038,217.324 213.9698,217.387 C214.2408,217.443 214.4148,217.706 214.3588,217.977 C214.3468,218.035 213.1348,224.07 211.2758,245.093 C211.2528,245.353 211.0348,245.549 210.7788,245.549" id="Fill-23" fill="#000"/>
            <path d="M220.8765,277.1867 C220.6475,277.1867 220.4245,277.1407 220.2075,277.0467 C215.7955,275.1547 217.5815,251.0167 217.9825,246.2157 L206.3075,246.3427 C194.0445,246.4947 186.5905,242.1567 186.2765,241.9717 C186.0395,241.8327 185.9605,241.5267 186.1005,241.2887 C186.2385,241.0487 186.5465,240.9707 186.7835,241.1097 C186.8575,241.1547 194.4095,245.4817 206.2955,245.3427 L218.5225,245.2097 C218.6715,245.2227 218.7995,245.2667 218.8955,245.3707 C218.9905,245.4737 219.0385,245.6137 219.0255,245.7537 C218.0545,256.8197 217.6225,274.8507 220.6025,276.1277 C221.2015,276.3907 222.0085,275.6777 222.5745,275.0347 C224.2705,273.1147 225.0635,269.4957 224.9355,264.2787 C224.9285,264.0017 225.1475,263.7727 225.4225,263.7657 L225.4355,263.7657 C225.7055,263.7657 225.9285,263.9817 225.9355,264.2527 C226.0695,269.7307 225.1915,273.5807 223.3245,275.6967 C222.4495,276.6877 221.6295,277.1867 220.8765,277.1867" id="Fill-25" fill="#000"/>
            <path d="M207.5181,278.0636 C199.2581,278.0636 192.8911,276.9076 188.5181,275.7126 C181.4761,273.7886 178.0051,271.4086 177.8621,271.3076 C177.6351,271.1506 177.5791,270.8386 177.7371,270.6126 C177.8931,270.3866 178.2061,270.3316 178.4321,270.4866 C178.5701,270.5826 192.4941,279.9596 220.5441,276.1546 C220.8071,276.1046 221.0691,276.3076 221.1071,276.5826 C221.1441,276.8556 220.9531,277.1076 220.6791,277.1446 C215.8661,277.7986 211.4741,278.0636 207.5181,278.0636" id="Fill-27" fill="#000"/>
            <path d="M272.3277,263.2902 C267.7267,263.2902 260.4197,262.3302 255.0207,257.0472 C254.8237,256.8532 254.8197,256.5372 255.0137,256.3402 C255.2057,256.1422 255.5217,256.1402 255.7207,256.3322 C263.7847,264.2242 276.3967,262.0182 276.5207,261.9922 C276.8037,261.9452 277.0537,262.1232 277.1027,262.3942 C277.1537,262.6652 276.9737,262.9262 276.7027,262.9762 C276.6547,262.9842 274.9207,263.2902 272.3277,263.2902" id="Fill-29" fill="#000"/>
            <path d="M251.3091,208.005 C251.1361,208.005 250.9751,207.915 250.8831,207.768 L236.8511,184.994 C236.7061,184.759 236.7801,184.45 237.0141,184.306 C237.2491,184.163 237.5571,184.233 237.7031,184.469 L251.2521,206.46 L261.9001,184.057 C262.0181,183.807 262.3181,183.701 262.5661,183.82 C262.8151,183.939 262.9211,184.236 262.8021,184.486 L251.7601,207.72 C251.6821,207.885 251.5191,207.994 251.3361,208.004 C251.3271,208.005 251.3181,208.005 251.3091,208.005" id="Fill-31" fill="#000"/>
          </g>
        </g>
        <g id="Hair" transform="translate(104.000000, 285.000000) scale(1 1)">
          <g id="Hair/Long Wavy" stroke="none" stroke-width="1" fill="none" fill-rule="evenodd">
            <g id="Head" transform="translate(132.000000, 111.000000)">
              <path d="M44.1789,24.3663 C44.5879,35.6913 33.3599,45.0883 22.4569,45.0883 C11.5539,45.0883 0.4939,36.9643 0.0189,25.3903 C-0.4461,14.0673 7.7449,1.3583 15.9329,0.2613 C32.6079,-1.9747 43.6789,10.5083 44.1789,24.3663" id="Fill-1" fill="#000"/>
              <path d="M22.4567,44.088 C12.4757,44.088 1.4787,36.559 1.0177,25.35 C0.5797,14.678 8.3147,2.291 16.0657,1.252 C17.3127,1.085 18.5577,1 19.7657,1 C34.4247,1 42.7697,13.058 43.1797,24.402 C43.3447,28.984 41.4627,33.553 37.8807,37.268 C33.7607,41.538 27.9947,44.088 22.4567,44.088" id="Skin" fill="#c3986a"/>
            </g>
            <path d="M148.8104,126.0757 C140.8924,126.3017 141.5704,133.6357 141.5704,133.6357 C141.5704,133.6357 139.2794,126.9507 141.5564,123.6847 C141.5564,123.6847 133.436034,134.1847 137.055034,140.9717 C140.675034,147.7577 142.853659,154.0917 138.328659,161.7827 C133.804659,169.4747 138.2364,170.8317 143.4404,179.6537 C148.6434,188.4757 134.1644,199.5607 124.2114,204.7637 C124.2114,204.7637 131.6764,198.4297 124.2114,193.0007 C116.7454,187.5717 100.4584,177.6177 105.4354,163.3657 C110.4114,149.1137 118.7234,152.1857 116.4604,135.8977 C114.1984,119.6107 128.9614,96.9887 148.8684,99.7037 C148.8684,99.7037 150.8454,95.1787 154.2684,94.5007 C154.2684,94.5007 151.9774,99.2507 154.2684,99.7037 C156.5604,100.1557 171.0764,99.7037 180.5394,115.7466 C190.0024,131.7895 178.5034,143.9107 191.3984,152.0547 C204.2924,160.1987 201.3524,182.3687 191.3984,187.3447 C181.4444,192.3217 182.5754,201.1437 182.5754,201.1437 C182.5754,201.1437 176.2414,192.5477 180.5394,185.9877 C180.5394,185.9877 173.5274,185.0827 169.0024,179.2017 C164.4784,173.3197 168.5504,166.0807 167.1934,161.7827 C165.8354,157.4837 162.755,154.174032 162.755,154.174032 C162.755,154.174032 174.663747,149.738762 176.189747,137.295762 C176.189747,137.295762 176.400463,126.336558 171.753427,123.312722 C171.753427,123.312722 162.6094,124.3007 160.7154,115.7347 C160.7154,115.7347 156.7274,125.8487 148.8104,126.0757 Z" id="Hair" fill="#ad3409"/>
            <path d="M190.066,167.4027 C190.086,167.7987 190.105,168.2017 190.129,168.6127 C190.145,168.8777 190.366,169.0827 190.628,169.0827 C190.638,169.0827 190.648,169.0827 190.659,169.0817 C190.934,169.0647 191.144,168.8287 191.128,168.5517 C191.103,168.1457 191.084,167.7467 191.064,167.3527 C190.831,162.5987 190.629,158.4937 182.781,150.6447 C174.781,142.6437 179.67,126.4987 180.293,125.4147 C180.451,125.2207 180.442,124.9357 180.265,124.7527 C180.073,124.5517 179.756,124.5487 179.558,124.7387 C179.122,125.1597 177.337,130.8037 177.278,137.0747 C177.219,143.3067 178.833,148.1107 182.074,151.3517 C189.649,158.9267 189.833,162.6677 190.066,167.4027 M121.42,170.7137 C124.245,172.9107 127.447,175.4007 127.363,182.3757 C127.36,182.6517 127.581,182.8787 127.857,182.8817 L127.863,182.8817 C128.136,182.8817 128.36,182.6617 128.363,182.3867 C128.453,174.9167 124.894,172.1477 122.034,169.9237 C120.48,168.7147 119.138,167.6727 118.723,166.1127 C117.537,161.6647 122.795,154.1477 122.848,154.0717 C123.007,153.8467 122.954,153.5347 122.728,153.3757 C122.506,153.2167 122.193,153.2687 122.032,153.4947 C121.803,153.8187 116.45,161.4697 117.756,166.3707 C118.259,168.2547 119.795,169.4487 121.42,170.7137 M148.869,100.2037 C149.061,100.2037 149.245,100.0907 149.327,99.9037 C149.343,99.8657 150.842,96.4937 153.38,95.3157 C152.952,96.4537 152.449,98.2357 152.986,99.3107 C153.221,99.7817 153.63,100.0877 154.171,100.1937 C154.435,100.2477 154.705,100.0707 154.758,99.7997 C154.812,99.5297 154.636,99.2667 154.365,99.2137 C154.127,99.1657 153.977,99.0577 153.88,98.8647 C153.451,98.0047 154.167,95.8647 154.718,94.7167 C154.8,94.5467 154.78,94.3437 154.664,94.1947 C154.548,94.0447 154.365,93.9707 154.17,94.0097 C150.534,94.7307 148.496,99.3087 148.411,99.5037 C148.3,99.7567 148.416,100.0507 148.669,100.1617 C148.734,100.1897 148.801,100.2037 148.869,100.2037 Z M161.963,154.0627 C161.959,154.0647 161.954,154.0667 161.951,154.0677 C161.948,154.0687 161.944,154.0707 161.941,154.0717 C159.511,155.0997 156.929,155.6207 154.268,155.6207 C152.111,155.6207 147.648,154.063663 145.379,153.304663 C145.367,153.188663 142.860028,151.795227 142.846028,151.679227 C142.817028,151.444227 142.106,151.612577 142.066,151.378577 C142.028,151.154577 141.105,150.803656 141.057,150.580656 C141.014,150.381656 140.559845,147.987174 140.366845,147.500174 C140.290845,147.307174 139.632418,143.327797 139.154418,142.452797 C138.832418,141.861797 138.509418,141.267797 138.191418,140.670797 C137.448418,139.279797 137.125418,137.691797 137.078418,136.057797 C137.012418,133.367797 139.927376,126.2897 140.036376,128.7817 C140.145376,131.2737 140.883,133.1427 141.057,133.6737 C141.076,133.7337 141.091,133.7797 141.096,133.7957 C141.157,133.9757 141.311,134.0987 141.492,134.1277 C141.53,134.1337 141.57,134.1297 141.609,134.1267 C141.631,134.1257 141.652,134.1297 141.674,134.1257 C141.911,134.0747 142.071,133.8637 142.066,133.6257 C142.065,133.6137 142.07,133.6027 142.069,133.5907 C142.069,133.5887 142.068,133.5757 142.066,133.5537 C142.046,133.2367 141.954,130.8897 143.323,129.0227 C143.382,128.9407 143.451,128.8617 143.517,128.7817 C143.557,128.7327 143.594,128.6817 143.637,128.6327 C143.727,128.5317 143.828,128.4397 143.925,128.3447 C143.984,128.2897 144.037,128.2267 144.098,128.1737 C144.182,128.0987 144.275,128.0347 144.364,127.9647 C144.448,127.9007 144.526,127.8317 144.614,127.7707 C144.685,127.7217 144.764,127.6817 144.837,127.6347 C144.952,127.5647 145.063,127.4907 145.183,127.4267 C145.246,127.3937 145.315,127.3677 145.379,127.3367 C145.52,127.2687 145.659,127.1997 145.806,127.1407 C145.856,127.1217 145.91,127.1067 145.96,127.0887 C146.13,127.0257 146.302,126.9637 146.483,126.9127 C146.506,126.9057 146.532,126.9017 146.555,126.8947 C147.003,126.7717 147.481,126.6817 147.993,126.6297 C148.261,126.6017 148.539,126.5837 148.825,126.5757 C155.351,126.3887 159.197,120.0757 160.601,117.1967 C162.015,121.4247 165.12,123.0937 167.589,123.7507 C168.94,124.1167 170.087,124.1747 170.676,124.1677 C170.72,124.1677 170.775,124.1687 170.812,124.1687 C172.85764,124.1687 173.071534,126.1967 173.555534,127.4267 C174.151534,129.2807 174.665491,131.756 174.862491,133.544 C174.875491,133.669 174.859491,133.972 174.862491,134 C174.959491,135.052 175.156698,135.6957 175.189698,136.4087 C175.132698,138.1737 174.83182,140.33547 174.35182,141.92747 C174.13082,142.61447 173.21464,144.140366 172.93964,144.762366 C172.91264,144.825366 172.88564,144.887366 172.85764,144.949366 C172.73564,145.218366 172.60864,145.483366 172.47664,145.741366 C169.73464,151.117366 164.675,152.6937 162.799,153.6637 C162.524,153.8027 162.249,153.9407 161.963,154.0627 Z M191.174,186.8977 C183.746,190.6127 182.313,196.5037 182.084,199.4317 C180.558,196.7827 177.906,190.9207 180.958,186.2617 C181.052,186.1177 181.066,185.9347 180.994,185.7787 C180.921,185.6227 180.774,185.5137 180.604,185.4917 C180.536,185.4827 173.747,184.5477 169.399,178.8967 C166.698,175.3847 167.212,171.3007 167.665,167.6977 C167.946,165.4617 168.212,163.3487 167.67,161.6317 C166.601,158.2487 163.89,155.220032 162.755,154.174032 C162.796,154.153032 162.851,154.124032 162.893,154.100032 C162.925,154.086032 162.957,154.072032 162.987,154.057032 L163.232,153.933032 C165.384,152.792032 171.363,150.386785 174.004,143.804785 L174.404952,143.136474 C174.494286,142.906474 174.755868,142.410466 175.189698,141.64845 C175.205698,141.60045 176.018747,138.30107 176.189747,136.90407 C176.190747,136.71107 176.127976,134.891535 175.795976,132.187535 C175.618976,130.610535 175.598698,130.5197 175.189698,129.1127 C175.112698,128.8917 174.488952,127.2137 174.404952,126.9967 C173.900952,125.4207 172.990365,124.2677 172.068365,123.2187 C172.026365,123.1707 171.356,123.2477 171.301,123.2187 C171.295,123.2147 171.291,123.2097 171.284,123.2077 C171.209,123.1717 171.126,123.1507 171.04,123.1587 C171.003,123.1617 170.858,123.1697 170.647,123.1707 C170.627,123.1707 170.616,123.1717 170.594,123.1717 C170.544,123.1717 170.473,123.1687 170.415,123.1667 C170.332,123.1657 170.256,123.1647 170.16,123.1607 C168.511,123.0837 164.954,122.5247 162.743,119.3047 C162.718,119.2697 162.699,119.2267 162.675,119.1917 C162.482,118.9007 162.295,118.5957 162.126,118.2607 C161.985,117.9837 161.864,117.6737 161.743,117.3637 C161.7,117.2537 161.648,117.1587 161.607,117.0447 C161.453,116.6077 161.319,116.1397 161.208,115.6397 C161.207,115.6347 161.205,115.6317 161.204,115.6267 C161.202,115.6197 161.196,115.6157 161.194,115.6097 C161.171,115.5337 161.129,115.4667 161.075,115.4107 C161.048,115.3817 161.024,115.3577 160.992,115.3367 C160.983,115.3307 160.977,115.3207 160.968,115.3147 C160.937,115.2977 160.903,115.2967 160.871,115.2857 C160.831,115.2707 160.798,115.2407 160.754,115.2367 C160.744,115.2357 160.735,115.2447 160.724,115.2447 C160.628,115.2387 160.538,115.2657 160.457,115.3087 C160.452,115.3117 160.449,115.3157 160.444,115.3187 C160.362,115.3657 160.304,115.4367 160.27,115.5277 C160.265,115.5377 160.254,115.5417 160.251,115.5507 C160.212,115.6497 156.296,125.3607 148.795,125.5757 C146.217,125.6497 144.229,126.4557 142.886,127.9707 C142.687,128.1967 142.508,128.4297 142.35,128.6677 C142.305,128.7347 142.272,128.8027 142.23,128.8717 C142.124,129.0437 142.016,129.2147 141.928,129.3877 C141.885,129.4727 141.855,129.5577 141.816,129.6427 C141.744,129.8007 141.668,129.9587 141.609,130.1137 C141.578,130.1957 141.557,130.2747 141.53,130.3557 C141.477,130.5087 141.421,130.6647 141.379,130.8137 C141.293,130.3557 141.214,129.8607 141.156,129.3497 C141.18,129.2747 141.192,129.1957 141.177,129.1127 C141.126,128.8227 141.091,128.5397 141.068,128.2617 C141.059,128.0787 141.052,127.8947 141.051,127.7117 C141.051,127.6357 141.052,127.5617 141.054,127.4867 C141.056,127.3227 141.062,127.1587 141.072,126.9967 C141.081,126.8597 141.091,126.7247 141.106,126.5897 C141.117,126.4877 141.129,126.3857 141.143,126.2857 C141.161,126.1627 141.183,126.0417 141.206,125.9217 C141.216,125.8727 141.222,125.8227 141.233,125.7737 C141.247,125.7097 141.262,125.6467 141.278,125.5837 C141.32,125.4147 141.37,125.2507 141.422,125.0867 C141.441,125.0327 141.462,124.9817 141.482,124.9287 C141.779,124.3157 141.981,123.9497 141.992,123.9297 C142.007,123.9017 142.011,123.8717 142.021,123.8407 C142.031,123.8127 142.045,123.7857 142.049,123.7567 C142.054,123.7197 142.049,123.6837 142.046,123.6477 C142.045,123.6357 142.046,123.6237 142.045,123.6117 C143.147,121.5427 144.952,119.9487 146.445,118.6347 L146.98,118.1627 C149.25,116.1357 148.336,113.0347 147.536,111.6777 C147.395,111.4397 147.088,111.3617 146.851,111.5017 C146.613,111.6417 146.534,111.9477 146.674,112.1857 C146.693,112.2177 148.545,115.4247 146.314,117.4167 L145.784,117.8847 C144.06,119.4017 141.767,121.4327 140.672,124.2297 C140.217,125.0957 134.634398,132.506375 136.173398,138.714375 C136.188398,138.771375 136.579398,139.999375 136.603398,140.059375 C136.735398,140.396375 137.680398,142.212375 137.994398,142.789375 C139.534398,145.616375 138.932481,148.376837 139.698481,151.150837 C139.706481,151.176837 140.073481,153.5377 140.107481,153.9997 C140.285481,156.3767 139.809481,158.8227 138.279481,161.4247 C133.680481,169.2417 137.742,170.9757 143.009,179.9077 C144.088,181.7367 144.315,183.7827 143.685,185.9887 C141.902,192.2367 133.782,198.7207 126.465,202.9527 C127.308,201.7247 128.093,200.0747 128.025,198.2407 C127.946,196.1367 126.762,194.2377 124.505,192.5957 C123.894,192.1517 123.223,191.6757 122.51,191.1717 C114.637,185.5947 101.461,176.2617 105.907,163.5307 C105.999,163.2697 105.861,162.9847 105.6,162.8937 C105.338,162.7997 105.054,162.9397 104.963,163.2007 C100.269,176.6437 113.83,186.2487 121.932,191.9867 C122.642,192.4897 123.309,192.9627 123.918,193.4047 C125.912,194.8547 126.958,196.4937 127.026,198.2737 C127.152,201.5637 123.92,204.3547 123.887,204.3827 C123.694,204.5487 123.655,204.8327 123.797,205.0437 C123.893,205.1857 124.05,205.2637 124.212,205.2637 C124.291,205.2637 124.37,205.2457 124.443,205.2077 C132.465,201.0127 142.571,193.5357 144.647,186.2627 C145.355,183.7837 145.094,181.4737 143.871,179.3997 C138.771,170.7537 134.724481,169.4407 139.140481,161.9327 C140.634481,159.3947 141.816,155.401364 141.051,151.729671 C144.647,155.088 151.838,156.129032 153.99,156.129032 C156.676,156.129032 159.279,155.610032 161.743,154.615032 C162.524,155.294032 165.602,158.4057 166.716,161.9327 C167.193,163.4407 166.94,165.4477 166.672,167.5727 C166.195,171.3677 165.654,175.6687 168.606,179.5067 C172.387,184.4217 177.777,185.9457 179.737,186.3527 C176.066,193.0147 181.915,201.0897 182.173,201.4407 C182.307,201.6237 182.548,201.6937 182.761,201.6077 C182.972,201.5237 183.1,201.3067 183.072,201.0817 C183.029,200.7347 182.122,192.5427 191.622,187.7927 C191.869,187.6687 191.968,187.3687 191.845,187.1217 C191.721,186.8747 191.422,186.7747 191.174,186.8977 Z" id="Fill-8" fill="#000"/>
          </g>
        </g>
        <g id="Expression" transform="translate(201.000000, 388.000000) scale(1 1)">
          <g id="Expression/Super Happy" stroke="none" stroke-width="1" fill="none" fill-rule="evenodd">
            <path d="M58.6213,46.8368 C58.6213,46.8368 62.3003,43.8938 65.2423,46.8368 C65.2423,46.8368 62.3193,48.4838 58.6213,46.8368" id="Tougue" fill="#EC7068"/>
            <path d="M66.1809,45.4442 C65.2939,46.5242 63.8169,47.0722 61.7889,47.0722 C60.0339,47.0722 58.7339,46.5792 57.9269,45.6072 C56.8729,44.3382 56.8919,42.5372 56.9619,41.7392 L67.1399,41.7392 C67.2079,42.5002 67.2149,44.1842 66.1809,45.4442 M67.5779,40.7392 L56.5219,40.7392 C56.2819,40.7392 56.0759,40.9102 56.0309,41.1452 C56.0069,41.2692 55.4699,44.2062 57.1529,46.2402 C58.1589,47.4562 59.7179,48.0722 61.7889,48.0722 C64.1299,48.0722 65.8679,47.4012 66.9529,46.0792 C68.6209,44.0482 68.0919,41.2592 68.0689,41.1412 C68.0229,40.9082 67.8169,40.7392 67.5779,40.7392 M73.0809,30.5642 C71.8679,29.4832 68.9119,28.0932 66.4229,30.5842 C66.2279,30.7792 66.2279,31.0952 66.4229,31.2912 C66.5209,31.3882 66.6489,31.4372 66.7769,31.4372 C66.9049,31.4372 67.0329,31.3882 67.1299,31.2912 C69.5719,28.8552 72.3009,31.2102 72.4159,31.3112 C72.6219,31.4932 72.9389,31.4742 73.1219,31.2682 C73.3049,31.0622 73.2859,30.7472 73.0809,30.5642 M57.3719,31.2912 C57.5679,31.0952 57.5679,30.7792 57.3719,30.5842 C54.8819,28.0932 51.9289,29.4832 50.7149,30.5642 C50.5089,30.7482 50.4919,31.0642 50.6749,31.2702 C50.7739,31.3812 50.9099,31.4372 51.0479,31.4372 C51.1659,31.4372 51.2849,31.3952 51.3809,31.3102 C51.4949,31.2092 54.2129,28.8382 56.6649,31.2912 C56.8609,31.4862 57.1769,31.4862 57.3719,31.2912 M61.7889,31.3972 C62.9419,32.9372 64.8449,35.9742 64.1499,37.4382 C63.8609,38.0482 63.0669,38.3562 61.7889,38.3562 C60.5119,38.3562 59.7179,38.0482 59.4289,37.4382 C58.7339,35.9742 60.6369,32.9372 61.7889,31.3972 M61.7889,39.3562 C63.4869,39.3562 64.5839,38.8552 65.0529,37.8672 C66.2429,35.3592 62.5959,30.7812 62.1759,30.2672 C61.9869,30.0352 61.5919,30.0352 61.4029,30.2672 C60.9829,30.7812 57.3359,35.3592 58.5259,37.8672 C58.9939,38.8552 60.0919,39.3562 61.7889,39.3562 M67.5779,25.0002 C70.1009,25.0002 71.5799,26.4292 71.5949,26.4432 C71.6929,26.5402 71.8199,26.5882 71.9479,26.5882 C72.0759,26.5882 72.2039,26.5392 72.3019,26.4402 C72.4949,26.2452 72.4949,25.9292 72.3009,25.7352 C72.2299,25.6642 70.5319,24.0002 67.5779,24.0002 C67.3019,24.0002 67.0779,24.2232 67.0779,24.5002 C67.0779,24.7762 67.3019,25.0002 67.5779,25.0002 M51.7199,26.5882 C51.8479,26.5882 51.9749,26.5402 52.0729,26.4432 C52.0869,26.4292 53.5669,25.0002 56.0889,25.0002 C56.3659,25.0002 56.5889,24.7762 56.5889,24.5002 C56.5889,24.2232 56.3659,24.0002 56.0889,24.0002 C53.1359,24.0002 51.4379,25.6642 51.3669,25.7352 C51.1719,25.9292 51.1719,26.2452 51.3659,26.4402 C51.4629,26.5392 51.5919,26.5882 51.7199,26.5882" id="Fill-5" fill="#000"/>
            <path d="M52.4996066,34 C54.4327301,34 56,34.8954741 56,36 C56,37.1045259 54.4327301,38 52.4996066,38 C50.5664831,38 49,37.1045259 49,36 C49,34.8954741 50.5664831,34 52.4996066,34 Z M70.5,34 C72.4329063,34 74,34.8954741 74,36 C74,37.1045259 72.4329063,38 70.5,38 C68.5670937,38 67,37.1045259 67,36 C67,34.8954741 68.5670937,34 70.5,34 Z" id="Cheeks" fill="#E2A2B5"/>
          </g>
        </g>
        <g id="Facial Hair" transform="translate(201.000000, 387.000000) scale(1 1)" fill="#000">
          <g id="Facial Hair/None" stroke="none" stroke-width="1" fill="none" fill-rule="evenodd" fill-opacity="0"/>
        </g>
        <g id="Accesories" transform="translate(104.500000, 286.000000) scale(1 1)">
          <g id="Accesories/Simple Glases" stroke="none" stroke-width="1" fill="none" fill-rule="evenodd">
            <path d="M153.6922,129 C154.5482,129 155.3622,129.369 155.9252,130.013 C156.4882,130.657 156.7462,131.513 156.6332,132.361 L156.547997,132.998134 C156.879673,132.976172 157.215343,132.9622 157.558,132.9622 C158.066,132.9622 158.558,132.9922 159.04,133.0402 L159.038766,133.04 L158.9677,132.231 C158.8947,131.403 159.1737,130.577 159.7347,129.964 C160.2957,129.352 161.0927,129 161.9237,129 L169.6487,129 C170.5047,129 171.3187,129.369 171.8817,130.013 C172.4447,130.657 172.7027,131.513 172.5897,132.361 L171.8617,137.792 C171.6827,139.129 170.6237,140.178 169.2837,140.342 L166.1967,140.721 C166.0767,140.736 165.9567,140.744 165.8357,140.744 C165.7237,140.744 165.6117,140.737 165.5017,140.725 L162.0737,140.337 C160.6737,140.179 159.5777,139.057 159.4517,137.653 L159.130009,134.055083 C158.620319,133.995157 158.094652,133.9622 157.558,133.9622 C157.168,133.9622 156.787,133.9842 156.411,134.0162 L156.411,134.0162 L155.9052,137.792 C155.7262,139.129 154.6672,140.178 153.3272,140.342 L150.2402,140.721 C150.1202,140.736 150.0002,140.744 149.8792,140.744 C149.7672,140.744 149.6552,140.737 149.5452,140.725 L146.1172,140.337 C144.7172,140.179 143.6212,139.057 143.4952,137.653 L143.0112,132.231 C142.9382,131.403 143.2172,130.577 143.7782,129.964 C144.3392,129.352 145.1362,129 145.9672,129 L153.6922,129 Z M153.6922,130 L145.9672,130 C145.4082,130 144.8932,130.227 144.5162,130.639 C144.1382,131.052 143.9582,131.585 144.0082,132.142 L144.4912,137.564 C144.5742,138.495 145.3012,139.239 146.2302,139.344 L148.2162,139.568 L151.5602,139.552 L151.5602,139.552 L153.2052,139.35 C154.0932,139.241 154.7962,138.546 154.9142,137.659 L155.6412,132.228 C155.7172,131.666 155.5462,131.099 155.1722,130.671 C154.7992,130.245 154.2592,130 153.6922,130 Z M169.6487,130 L161.9237,130 C161.3647,130 160.8497,130.227 160.4727,130.639 C160.0947,131.052 159.9147,131.585 159.9647,132.142 L160.4477,137.564 C160.5307,138.495 161.2577,139.239 162.1867,139.344 L164.1747,139.568 L167.5147,139.552 L167.5147,139.552 L169.1617,139.35 C170.0497,139.241 170.7527,138.546 170.8707,137.659 L171.5977,132.228 C171.6737,131.666 171.5027,131.099 171.1287,130.671 C170.7557,130.245 170.2157,130 169.6487,130 Z" id="Combined-Shape" fill="#000"/>
          </g>
        </g>
      </g>
    </g>
    <g id="Working Stuff" transform="translate(455.721600, 205.000000) scale(1 1)">
      <g id="Working Stuff/Windows" stroke="none" stroke-width="1" fill="none" fill-rule="evenodd">
        <g id="Working-Windows" transform="translate(8.000000, 24.000000)"/>
      </g>
    </g>
  </g>
</svg>